<svg height="448pt" viewBox="0 0 448 448" width="448pt" xmlns="http://www.w3.org/2000/svg"><path d="m176 168h96c4.417969 0 8 3.582031 8 8v96c0 4.417969-3.582031 8-8 8h-96c-4.417969 0-8-3.582031-8-8v-96c0-4.417969 3.582031-8 8-8zm0 0"/><path d="m176 0h96c4.417969 0 8 3.582031 8 8v96c0 4.417969-3.582031 8-8 8h-96c-4.417969 0-8-3.582031-8-8v-96c0-4.417969 3.582031-8 8-8zm0 0"/><path d="m176 336h96c4.417969 0 8 3.582031 8 8v96c0 4.417969-3.582031 8-8 8h-96c-4.417969 0-8-3.582031-8-8v-96c0-4.417969 3.582031-8 8-8zm0 0"/><path d="m344 168h96c4.417969 0 8 3.582031 8 8v96c0 4.417969-3.582031 8-8 8h-96c-4.417969 0-8-3.582031-8-8v-96c0-4.417969 3.582031-8 8-8zm0 0"/><path d="m344 0h96c4.417969 0 8 3.582031 8 8v96c0 4.417969-3.582031 8-8 8h-96c-4.417969 0-8-3.582031-8-8v-96c0-4.417969 3.582031-8 8-8zm0 0"/><path d="m344 336h96c4.417969 0 8 3.582031 8 8v96c0 4.417969-3.582031 8-8 8h-96c-4.417969 0-8-3.582031-8-8v-96c0-4.417969 3.582031-8 8-8zm0 0"/><path d="m8 168h96c4.417969 0 8 3.582031 8 8v96c0 4.417969-3.582031 8-8 8h-96c-4.417969 0-8-3.582031-8-8v-96c0-4.417969 3.582031-8 8-8zm0 0"/><path d="m8 0h96c4.417969 0 8 3.582031 8 8v96c0 4.417969-3.582031 8-8 8h-96c-4.417969 0-8-3.582031-8-8v-96c0-4.417969 3.582031-8 8-8zm0 0"/><path d="m8 336h96c4.417969 0 8 3.582031 8 8v96c0 4.417969-3.582031 8-8 8h-96c-4.417969 0-8-3.582031-8-8v-96c0-4.417969 3.582031-8 8-8zm0 0"/></svg>