<?xml version="1.0" standalone="no"?>
<!DOCTYPE svg PUBLIC "-//W3C//DTD SVG 1.1//EN" "http://www.w3.org/Graphics/SVG/1.1/DTD/svg11.dtd">
<svg xmlns="http://www.w3.org/2000/svg">
<metadata>Generated by Fontastic.me</metadata>
<defs>
<font id="documentation-ico" horiz-adv-x="512">
<font-face font-family="documentation-ico" units-per-em="512" ascent="480" descent="-32"/>
<missing-glyph horiz-adv-x="512" />

<glyph glyph-name="file-pdf-light-red" unicode="&#57344;" d="M434 414l-84 84c-9 9-21 14-34 14l-204 0c-26 0-48-22-48-48l0-416c0-27 22-48 48-48l288 0c27 0 48 21 48 48l0 332c0 13-5 25-14 34z m-23-23c2-2 4-4 5-7l-96 0 0 95c3 0 5-2 7-4z m-11-359l-288 0c-9 0-16 7-16 16l0 416c0 9 7 16 16 16l176 0 0-104c0-13 11-24 24-24l104 0 0-304c0-9-7-16-16-16z m-22 171c-13 13-55 9-74 7-21 13-35 30-45 56 5 18 12 48 7 65-5 28-40 25-45 7-5-18 0-44 8-78-11-28-29-67-42-88-20-11-54-30-58-53-4-16 22-39 53-6 9 10 19 25 31 45 27 9 56 20 82 24 22-12 48-19 65-19 27-1 28 30 18 40z m-229-89c6 16 28 35 35 41-22-35-35-42-35-41z m95 222c9 0 8-37 2-47-5 16-5 47-2 47z m-28-159c11 20 21 43 28 64 10-18 23-32 36-42-25-4-46-15-64-22z m153 6c0 0-6-7-43 9 41 3 47-6 43-9z"/>
<glyph glyph-name="file-word-light-blue" unicode="&#57345;" d="M434 414l-84 84c-9 9-21 14-34 14l-204 0c-26 0-48-22-48-48l0-416c0-27 22-48 48-48l288 0c27 0 48 21 48 48l0 332c0 13-5 25-14 34z m-23-23c2-2 4-4 5-7l-96 0 0 95c3 0 5-2 7-4z m-11-359l-288 0c-9 0-16 7-16 16l0 416c0 9 7 16 16 16l176 0 0-104c0-13 11-24 24-24l104 0 0-304c0-9-7-16-16-16z m-54 246c-6-32-32-139-33-150-6 29-1-1-42 151-1 5-6 9-11 9l-7 0c-5 0-10-4-11-9-39-142-38-141-40-155-4 24 2 3-34 155-1 5-6 9-12 9l-7 0c-8 0-14-7-12-15 10-38 35-137 43-168 1-5 6-9 11-9l17 0c6 0 10 4 12 9 34 128 33 123 36 143 7-31 1-7 37-143 2-5 6-9 12-9l14 0c5 0 13 4 15 9l43 168c2 8-4 15-12 15l-7 0c-5 0-10-4-12-10z"/>
<glyph glyph-name="angle-right-light" unicode="&#57346;" d="M327 247l-118-116c-5-4-12-4-17 0l-7 8c-5 4-5 12 0 17l102 100-102 100c-5 5-5 13 0 17l7 7c5 5 13 5 17 0l118-116c5-4 5-12 0-17z"/>
<glyph glyph-name="app" unicode="&#57347;" d="M149 484l0-93c0-16-10-28-24-28l-101 0c-13 0-24 12-24 28l0 93c0 15 11 28 24 28l101 0c14 0 24-13 24-28z m214 0l0-93c0-16 10-28 24-28l101 0c13 0 24 12 24 28l0 93c0 15-11 28-24 28l-101 0c-14 0-24-13-24-28z m-32-93l0 93c0 15-11 28-24 28l-102 0c-13 0-24-13-24-28l0-93c0-16 11-28 24-28l102 0c13 0 24 12 24 28z m-182-270l0-93c0-16-10-28-24-28l-101 0c-13 0-24 12-24 28l0 93c0 16 11 28 24 28l101 0c14 0 24-12 24-28z m214 0l0-93c0-16 10-28 24-28l101 0c13 0 24 12 24 28l0 93c0 16-11 28-24 28l-101 0c-14 0-24-12-24-28z m-32-93l0 93c0 16-11 28-24 28l-102 0c-13 0-24-12-24-28l0-93c0-16 11-28 24-28l102 0c13 0 24 12 24 28z m-182 275l0-94c0-15-10-28-24-28l-101 0c-13 0-24 13-24 28l0 94c0 15 11 28 24 28l101 0c14 0 24-13 24-28z m214 0l0-94c0-15 10-28 24-28l101 0c13 0 24 13 24 28l0 94c0 15-11 28-24 28l-101 0c-14 0-24-13-24-28z m-32-94l0 94c0 15-11 28-24 28l-102 0c-13 0-24-13-24-28l0-94c0-15 11-28 24-28l102 0c13 0 24 13 24 28z"/>
<glyph glyph-name="app-light" unicode="&#57348;" d="M117 480l0-85-85 0 0 85 85 0m8 32l-101 0c-13 0-24-13-24-28l0-93c0-16 11-28 24-28l101 0c14 0 24 12 24 28l0 93c0 15-10 28-24 28z m355-32l0-85-85 0 0 85 85 0m8 32l-101 0c-14 0-24-13-24-28l0-93c0-16 10-28 24-28l101 0c13 0 24 12 24 28l0 93c0 15-11 28-24 28z m-189-32l0-85-86 0 0 85 86 0m8 32l-102 0c-13 0-24-13-24-28l0-93c0-16 11-28 24-28l102 0c13 0 24 12 24 28l0 93c0 15-11 28-24 28z m-190-395l0-85-85 0 0 85 85 0m8 32l-101 0c-13 0-24-12-24-28l0-93c0-16 11-28 24-28l101 0c14 0 24 12 24 28l0 93c0 16-10 28-24 28z m355-32l0-85-85 0 0 85 85 0m8 32l-101 0c-14 0-24-12-24-28l0-93c0-16 10-28 24-28l101 0c13 0 24 12 24 28l0 93c0 16-11 28-24 28z m-189-32l0-85-86 0 0 85 86 0m8 32l-102 0c-13 0-24-12-24-28l0-93c0-16 11-28 24-28l102 0c13 0 24 12 24 28l0 93c0 16-11 28-24 28z m-190 150l0-86-85 0 0 86 85 0m8 32l-101 0c-13 0-24-13-24-28l0-94c0-15 11-28 24-28l101 0c14 0 24 13 24 28l0 94c0 15-10 28-24 28z m355-32l0-86-85 0 0 86 85 0m8 32l-101 0c-14 0-24-13-24-28l0-94c0-15 10-28 24-28l101 0c13 0 24 13 24 28l0 94c0 15-11 28-24 28z m-189-32l0-86-86 0 0 86 86 0m8 32l-102 0c-13 0-24-13-24-28l0-94c0-15 11-28 24-28l102 0c13 0 24 13 24 28l0 94c0 15-11 28-24 28z"/>
<glyph glyph-name="arrow-alt-left-light" unicode="&#57349;" d="M52 448l-8 0c-7 0-12-5-12-12l0-360c0-7 5-12 12-12l8 0c7 0 12 5 12 12l0 360c0 7-5 12-12 12z m380-105l-112 0 0 62c0 35-43 53-68 28l-144-143c-19-19-19-49 0-68l144-143c25-25 68-7 68 28l0 62 112 0c27 0 48 22 48 48l0 78c0 26-21 48-48 48z m16-126c0-9-7-16-16-16l-144 0 0-94c0-7-9-11-14-6l-143 144c-6 6-6 16 0 22l143 143c5 5 14 2 14-5l0-94 144 0c9 0 16-7 16-16z"/>
<glyph glyph-name="book-light" unicode="&#57350;" d="M388 352l-168 0c-7 0-12 5-12 12l0 8c0 7 5 12 12 12l168 0c7 0 12-5 12-12l0-8c0-7-5-12-12-12z m12-52l0 8c0 7-5 12-12 12l-168 0c-7 0-12-5-12-12l0-8c0-7 5-12 12-12l168 0c7 0 12 5 12 12z m65-268l3 0c7 0 12-5 12-12l0-8c0-7-5-12-12-12l-356 0c-44 0-80 36-80 80l0 352c0 44 36 80 80 80l344 0c13 0 24-11 24-24l0-368c0-10-6-19-15-22-3-16-4-46 0-66z m-305 96l288 0 0 352-288 0z m-96-16c13 10 30 16 48 16l16 0 0 352-16 0c-26 0-48-22-48-48z m372-80c-3 20-3 45 0 64l-324 0c-64 0-64-64 0-64z"/>
<glyph glyph-name="bullhorn-light" unicode="&#57351;" d="M484 319l0 136c0 8-7 29-29 29l0 0c-6 0-13-3-18-7l-75-60c-38-31-86-47-134-47l-171 0c-32 0-57-26-57-57l0-85c0-32 25-57 57-57l-1-29c0-35 9-69 23-98 5-10 15-16 25-16l95 0c23 0 37 27 23 45-15 20-23 43-23 69 0 10 1 20 4 29l25 0c48 0 96-17 134-47l75-61c5-4 12-6 18-6 22 0 29 20 29 28l0 136c16 10 28 28 28 49 0 21-12 39-28 49z m-285-262l-94 0c-13 27-20 55-20 85l0 28 0 1 89 0c-2-10-4-19-4-29 0-31 10-61 29-85z m-142 142c-16 0-29 13-29 29l0 85c0 16 13 28 29 28l171 0 0-142z m398-113c0 0 0 0 0-1l-75 61c-36 28-79 46-124 51l0 146c45 6 88 23 124 52l75 60c0 0 0 0 0 0 0 0 0 0 0 0z"/>
<glyph glyph-name="cog-light" unicode="&#57352;" d="M483 213l-33 19c2 16 2 32 0 48l33 19c9 6 14 17 11 28-11 38-31 72-58 99-7 8-20 10-29 5l-33-19c-13 10-27 18-42 24l0 38c0 11-8 21-19 23-37 9-77 9-114 0-11-2-19-12-19-23l0-38c-15-6-29-14-42-24l-33 19c-9 5-22 3-29-5-27-27-47-61-58-99-3-11 2-22 11-28l33-19c-2-16-2-32 0-48l-33-19c-9-6-14-17-11-28 11-38 31-72 58-99 7-8 20-10 29-5l33 19c13-10 27-18 42-24l0-38c0-11 8-21 19-23 37-9 77-9 114 0 11 2 19 12 19 23l0 38c15 6 29 14 42 24l33-19c9-5 22-3 29 5 27 27 47 61 58 99 3 11-2 22-11 28z m-66-101l-46 27c-27-23-37-29-71-41l0-54c-29-6-59-6-88 0l0 54c-33 12-43 17-71 41l-46-27c-20 22-35 48-44 76l46 27c-6 35-6 47 0 82l-46 27c9 28 24 54 44 76l46-27c27 23 37 29 71 41l0 54c29 6 59 6 88 0l0-54c34-12 44-18 71-41l46 27c20-22 35-48 44-76l-46-27c6-35 6-47 0-82l46-27c-9-28-24-54-44-76z m-161 240c-53 0-96-43-96-96 0-53 43-96 96-96 53 0 96 43 96 96 0 53-43 96-96 96z m0-160c-35 0-64 29-64 64 0 35 29 64 64 64 35 0 64-29 64-64 0-35-29-64-64-64z"/>
<glyph glyph-name="copy-light" unicode="&#57354;" d="M466 446l-52 52c-9 9-21 14-34 14l-172 0c-27 0-48-21-48-48l0-48-80 0c-27 0-48-21-48-48l0-320c0-27 21-48 48-48l224 0c27 0 48 21 48 48l0 48 80 0c27 0 48 21 48 48l0 268c0 13-5 25-14 34z m-82 34c3-1 5-3 7-5l52-52c2-2 4-4 5-7l-64 0z m-64-432c0-9-7-16-16-16l-224 0c-9 0-16 7-16 16l0 320c0 9 7 16 16 16l80 0 0-240c0-27 21-48 48-48l112 0z m128 96c0-9-7-16-16-16l-224 0c-9 0-16 7-16 16l0 320c0 9 7 16 16 16l144 0 0-72c0-13 11-24 24-24l72 0z"/>
<glyph glyph-name="download-light" unicode="&#57355;" d="M452 80c0-11-9-20-20-20-11 0-20 9-20 20 0 11 9 20 20 20 11 0 20-9 20-20z m-84 20c-11 0-20-9-20-20 0-11 9-20 20-20 11 0 20 9 20 20 0 11-9 20-20 20z m144 48l0-104c0-24-20-44-44-44l-424 0c-24 0-44 20-44 44l0 104c0 24 20 44 44 44l99 0-56 56c-25 26-7 69 28 69l53 0 0 155c0 22 18 40 40 40l96 0c22 0 40-18 40-40l0-155 53 0c35 0 53-43 28-69l-56-56 99 0c24 0 44-20 44-44z m-262-18c3-3 9-3 12 0l140 141c5 5 2 14-5 14l-85 0 0 187c0 4-4 8-8 8l-96 0c-4 0-8-4-8-8l0-187-85 0c-7 0-10-9-5-14z m230 18c0 7-5 12-12 12l-131 0-53-52c-15-16-41-16-56 0l-53 52-131 0c-7 0-12-5-12-12l0-104c0-7 5-12 12-12l424 0c7 0 12 5 12 12z"/>
<glyph glyph-name="envelope-light" unicode="&#57356;" d="M464 448l-416 0c-26 0-48-22-48-48l0-288c0-27 22-48 48-48l416 0c27 0 48 21 48 48l0 288c0 26-21 48-48 48z m-416-32l416 0c9 0 16-7 16-16l0-41c-22-19-53-44-151-122-16-13-50-45-73-45-23 0-57 32-73 45-98 78-129 103-151 122l0 41c0 9 7 16 16 16z m416-320l-416 0c-9 0-16 7-16 16l0 205c23-19 59-48 131-105 20-16 56-52 93-52 36 0 72 35 93 52 72 57 108 86 131 105l0-205c0-9-7-16-16-16z"/>
<glyph glyph-name="exclamation-triangle-light" unicode="&#57357;" d="M240 341l32 0c3 0 5-2 5-5l-7-174c0-3-2-6-5-6l-18 0c-3 0-5 3-5 6l-7 174c0 3 2 5 5 5z m16-202c-14 0-25-11-25-25 0-14 11-25 25-25 14 0 25 11 25 25 0 14-11 25-25 25z m250-47l-213 370c-16 29-58 29-74 0l-213-370c-17-28 4-64 37-64l426 0c33 0 54 36 37 64z m-37-35l-426 0c-11 0-18 12-13 21l214 370c5 9 19 10 24 0l214-370c5-9-2-21-13-21z"/>
<glyph glyph-name="external-link-alt-regular" unicode="&#57358;" d="M432 224l-16 0c-9 0-16-7-16-16l0-154c0-3-3-6-6-6l-340 0c-3 0-6 3-6 6l0 340c0 3 3 6 6 6l154 0c9 0 16 7 16 16l0 16c0 9-7 16-16 16l-160 0c-27 0-48-21-48-48l0-352c0-27 21-48 48-48l352 0c27 0 48 21 48 48l0 160c0 9-7 16-16 16z m68 288l-136 0c-5 0-9-3-11-7-2-5-1-10 3-13l48-49-272-272c-3-2-4-5-4-8 0-4 1-7 4-9l22-23c2-2 5-3 9-3 3 0 6 1 8 3l272 273 49-49c3-3 8-4 13-2 4 2 7 6 7 11l0 136c0 7-5 12-12 12z"/>
<glyph glyph-name="faq-light" unicode="&#57359;" d="M256 448c124 0 224-79 224-176 0-97-100-176-224-176-28 0-56 4-83 13l-15 5-13-10c-23-16-59-35-103-39 12 15 30 40 41 69l7 19-14 15c-29 30-44 66-44 104 0 97 101 176 224 176m0 32c-141 0-256-93-256-208 0-48 20-91 53-126-15-40-46-73-46-74-7-7-9-17-5-26 4-8 12-14 22-14 61 0 110 26 139 46 29-9 60-14 93-14 141 0 256 93 256 208 0 115-115 208-256 208z m27-320c0-15-13-28-28-28-16 0-28 13-28 28 0 16 12 28 28 28 15 0 28-12 28-28z m-21 52l-16 0c-6 0-12 6-12 12l0 1c0 70 78 63 78 107 0 20-18 40-58 40-29 0-44-9-59-28-4-5-11-6-16-3l-13 9c-6 4-7 12-3 18 21 27 46 44 91 44 53 0 98-30 98-80 0-67-78-64-78-107l0-1c0-6-5-12-12-12z"/>
<glyph glyph-name="file-alt-light" unicode="&#57360;" d="M434 414l-84 84c-9 9-21 14-34 14l-204 0c-26 0-48-22-48-48l0-416c0-27 22-48 48-48l288 0c27 0 48 21 48 48l0 332c0 13-5 25-14 34z m-23-23c2-2 4-4 5-7l-96 0 0 95c3 0 5-2 7-4z m-11-359l-288 0c-9 0-16 7-16 16l0 416c0 9 7 16 16 16l176 0 0-104c0-13 11-24 24-24l104 0 0-304c0-9-7-16-16-16z m-48 244l0-8c0-7-5-12-12-12l-168 0c-7 0-12 5-12 12l0 8c0 7 5 12 12 12l168 0c7 0 12-5 12-12z m0-64l0-8c0-7-5-12-12-12l-168 0c-7 0-12 5-12 12l0 8c0 7 5 12 12 12l168 0c7 0 12-5 12-12z m0-64l0-8c0-7-5-12-12-12l-168 0c-7 0-12 5-12 12l0 8c0 7 5 12 12 12l168 0c7 0 12-5 12-12z"/>
<glyph glyph-name="file-download-light" unicode="&#57361;" d="M434 414l-84 84c-9 9-21 14-34 14l-204 0c-26 0-48-22-48-48l0-416c0-27 22-48 48-48l288 0c27 0 48 21 48 48l0 332c0 13-5 25-14 34z m-114 65c3 0 5-2 7-4l84-84c2-2 4-4 5-7l-96 0z m96-431c0-9-7-16-16-16l-288 0c-9 0-16 7-16 16l0 416c0 9 7 16 16 16l176 0 0-104c0-13 11-24 24-24l104 0z m-144 248c0 4-4 8-8 8l-16 0c-4 0-8-4-8-8l0-88-53 0c-11 0-20-6-25-17-4-10-2-22 6-31l68-71c5-6 12-9 20-9 8 0 15 3 20 9l68 71c8 9 10 21 6 31-5 11-14 17-25 17l-53 0z m43-120l-59-62-59 62z"/>
<glyph glyph-name="file-word-light" unicode="&#57365;" d="M434 414l-84 84c-9 9-21 14-34 14l-204 0c-26 0-48-22-48-48l0-416c0-27 22-48 48-48l288 0c27 0 48 21 48 48l0 332c0 13-5 25-14 34z m-23-23c2-2 4-4 5-7l-96 0 0 95c3 0 5-2 7-4z m-11-359l-288 0c-9 0-16 7-16 16l0 416c0 9 7 16 16 16l176 0 0-104c0-13 11-24 24-24l104 0 0-304c0-9-7-16-16-16z m-54 246c-6-32-32-139-33-150-6 29-1-1-42 151-1 5-6 9-11 9l-7 0c-5 0-10-4-11-9-39-142-38-141-40-155-4 24 2 3-34 155-1 5-6 9-12 9l-7 0c-8 0-14-7-12-15 10-38 35-137 43-168 1-5 6-9 11-9l17 0c6 0 10 4 12 9 34 128 33 123 36 143 7-31 1-7 37-143 2-5 6-9 12-9l14 0c5 0 13 4 15 9l43 168c2 8-4 15-12 15l-7 0c-5 0-10-4-12-10z"/>
<glyph glyph-name="home-light" unicode="&#57367;" d="M481 280l-54 44 0 69c0 3-3 5-6 5l-17 0c-3 0-6-2-6-5l0-46-124 102c-11 8-25 8-36 0l-207-169c-3-3-3-7-1-10l9-11c3-3 7-4 10-1l36 29 0-216c0-7 7-14 15-14l113 0c8 0 15 7 15 14l0 114 56 0 0-114c0-8 7-14 15-14l113 0c8 0 15 7 15 14l0 216 36-29c3-3 8-2 10 1l9 11c1 1 2 3 2 5-1 2-2 4-3 5z m-83-194l0 0-85-1 0 114c0 8-6 14-14 14l-86 1c-3 0-7-2-10-4-2-3-4-7-4-11l0-113-85 0 0 225 142 116 142-116z"/>
<glyph glyph-name="info-circle-light" unicode="&#57368;" d="M256 472c119 0 216-96 216-216 0-119-97-216-216-216-119 0-216 97-216 216 0 119 97 216 216 216m0 32c-137 0-248-111-248-248 0-137 111-248 248-248 137 0 248 111 248 248 0 137-111 248-248 248z m-36-344l12 0 0 120-12 0c-7 0-12 5-12 12l0 8c0 7 5 12 12 12l48 0c7 0 12-5 12-12l0-140 12 0c7 0 12-5 12-12l0-8c0-7-5-12-12-12l-72 0c-7 0-12 5-12 12l0 8c0 7 5 12 12 12z m36 240c-18 0-32-14-32-32 0-18 14-32 32-32 18 0 32 14 32 32 0 18-14 32-32 32z"/>
<glyph glyph-name="pen-light" unicode="&#57369;" d="M493 456l-37 37c-13 13-29 19-46 19-16 0-32-6-45-19l-352-352-13-114c-1-15 10-27 24-27 1 0 2 0 3 0l114 13 352 352c25 25 25 66 0 91z m-367-413l-93-10 10 93 264 264 83-83z m345 345l-58-58-83 83 58 58c6 6 14 9 22 9 9 0 17-3 23-9l38-38c12-12 12-33 0-45z"/>
<glyph glyph-name="phone-alt-light" unicode="&#57370;" d="M493 161l-108 46c-13 6-28 2-37-9l-44-54c-69 35-125 91-159 160l53 44c11 9 15 24 9 37l-46 108c-6 14-21 22-36 18l-101-23c-14-3-24-16-24-31 0-253 205-457 457-457 15 0 28 10 31 24l23 101c4 15-4 30-18 36z m-36-129c-235 0-425 190-425 425l100 23 46-108-73-59c48-103 104-160 208-208l60 73 107-46z"/>
<glyph glyph-name="print-light" unicode="&#57371;" d="M432 320l-16 0 0 83c0 8-3 16-9 22l-78 78c-6 6-14 9-22 9l-181 0c-16 0-30-14-30-32l0-160-16 0c-44 0-80-36-80-80l0-96c0-9 7-16 16-16l80 0 0-112c0-9 7-16 16-16l288 0c9 0 16 7 16 16l0 112 80 0c9 0 16 7 16 16l0 96c0 44-36 80-80 80z m-112 147l51-51-51 0z m-192 13l160 0 0-64c0-18 14-32 32-32l64 0 0-64-256 0z m256-448l-256 0 0 96 256 0z m96 128l-448 0 0 80c0 26 22 48 48 48l352 0c26 0 48-22 48-48z m-80 88c-13 0-24-11-24-24 0-13 11-24 24-24 13 0 24 11 24 24 0 13-11 24-24 24z"/>
<glyph glyph-name="project-diagram-light-custom" unicode="&#57373;" d="M300 331l-88 0c-17 0-31-14-31-31l0-28-74 0c-59 0-107-48-107-107 0-58 48-106 107-106l19 0-11-11c-6-6-6-17 0-23 3-3 7-4 11-4 4 0 8 1 12 4l38 39c3 3 5 7 5 11 0 4-2 8-5 11l-38 39c-6 6-16 6-23 0-6-6-6-17 0-23l12-11-20 0c-42 0-75 33-75 74 0 42 33 75 75 75l74 0 0-28c0-17 14-31 31-31l88 0c17 0 31 14 31 31l0 88c0 17-14 31-31 31z m-1-118l-86 0 0 86 86 0z m-87-213l88 0c17 0 31 14 31 31l0 88c0 17-14 31-31 31l-88 0c-17 0-31-14-31-31l0-88c0-17 14-31 31-31z m1 118l86 0 0-86-86 0z m193 335l-75 0 0 28c0 17-14 31-31 31l-88 0c-17 0-31-14-31-31l0-88c0-17 14-31 31-31l88 0c17 0 31 14 31 31l0 28 75 0c41 0 74-33 74-75 0-41-33-74-74-74l-20 0 11 11c6 6 6 17 0 23-6 6-16 6-23 0l-38-39c-3-3-5-7-5-11 0-4 2-8 5-11l39-39c3-3 7-5 11-5 4 0 8 2 11 5 7 6 7 17 0 23l-11 11 20 0c58 0 106 48 106 106 0 59-48 107-106 107z m-107-59l-86 0 0 86 86 0z m-118 43c0-5-2-9-5-11l-38-39c-4-3-8-5-12-5-4 0-8 2-11 5-6 6-6 17 0 23l11 11-89 0c-9 0-16 7-16 16 0 9 7 16 16 16l89 0-11 11c-6 6-6 17 0 23 6 6 17 6 23 0l38-39c3-3 5-7 5-11 0 0 0 0 0 0z"/>
<glyph glyph-name="question-circle-light" unicode="&#57374;" d="M256 172c-15 0-28-13-28-28 0-15 13-28 28-28 15 0 28 13 28 28 0 15-13 28-28 28z m8 24l-16 0c-7 0-12 5-12 12l0 0c0 71 77 64 77 108 0 20-18 40-57 40-29 0-45-10-60-29-3-5-11-6-16-2l-13 9c-6 4-7 12-3 17 22 27 47 45 92 45 52 0 97-30 97-80 0-68-77-64-77-108l0 0c0-7-6-12-12-12z m-8 276c119 0 216-96 216-216 0-119-97-216-216-216-119 0-216 97-216 216 0 119 97 216 216 216m0 32c-137 0-248-111-248-248 0-137 111-248 248-248 137 0 248 111 248 248 0 137-111 248-248 248z"/>
<glyph glyph-name="redo-light" unicode="&#57375;" d="M492 504l-10 0c-7 0-12-5-12-12l0-111c-43 74-123 123-215 123-136 0-247-112-247-248 0-137 111-248 248-248 64 0 122 24 166 64 5 5 6 12 1 17l-7 7c-5 5-12 5-17 1-38-34-88-55-143-55-118 0-214 95-214 214 0 118 95 214 214 214 83 0 155-47 190-116l-114 0c-7 0-12-5-12-12l0-10c0-7 5-12 12-12l160 0c7 0 12 5 12 12l0 160c0 7-5 12-12 12z"/>
<glyph glyph-name="sign-out-alt" unicode="&#57376;" d="M160 295c0 9 7 16 16 16l144 0 0 94c0 7 9 10 14 5l141-143c7-6 7-16 0-22l-141-143c-5-5-14-2-14 5l0 94-144 0c-9 0-16 7-16 16l0 78m-32 0l0-78c0-26 22-48 48-48l112 0 0-62c0-35 43-53 68-28l142 143c19 19 19 49 0 68l-142 143c-25 25-68 7-68-28l0-62-112 0c-26 0-48-22-48-48z m-128 105l0-288c0-27 22-48 48-48l132 0c7 0 12 5 12 12l0 8c0 7-5 12-12 12l-132 0c-9 0-16 7-16 16l0 288c0 9 7 16 16 16l132 0c7 0 12 5 12 12l0 8c0 7-5 12-12 12l-132 0c-26 0-48-22-48-48z"/>
<glyph glyph-name="user-circle-light" unicode="&#57377;" d="M256 504c-137 0-248-111-248-248 0-137 111-248 248-248 137 0 248 111 248 248 0 137-111 248-248 248z m128-422c-36-26-80-42-128-42-48 0-92 16-128 42l0 14c0 35 29 64 64 64 11 0 28-11 64-11 37 0 53 11 64 11 35 0 64-29 64-64z m31 28c-7 46-47 82-95 82-20 0-30-11-64-11-34 0-43 11-64 11-48 0-88-36-95-82-35 38-57 90-57 146 0 119 97 216 216 216 119 0 216-97 216-216 0-56-22-108-57-146z m-159 282c-49 0-88-39-88-88 0-49 39-88 88-88 49 0 88 39 88 88 0 49-39 88-88 88z m0-144c-31 0-56 25-56 56 0 31 25 56 56 56 31 0 56-25 56-56 0-31-25-56-56-56z"/>
<glyph glyph-name="file-pdf-light" unicode="&#57362;" d="M434 414l-84 84c-9 9-21 14-34 14l-204 0c-26 0-48-22-48-48l0-416c0-27 22-48 48-48l288 0c27 0 48 21 48 48l0 332c0 13-5 25-14 34z m-23-23c2-2 4-4 5-7l-96 0 0 95c3 0 5-2 7-4z m-11-359l-288 0c-9 0-16 7-16 16l0 416c0 9 7 16 16 16l176 0 0-104c0-13 11-24 24-24l104 0 0-304c0-9-7-16-16-16z m-22 171c-13 13-55 9-74 7-21 13-35 30-45 56 5 18 12 48 7 65-5 28-40 25-45 7-5-18 0-44 8-78-11-28-29-67-42-88-20-11-54-30-58-53-4-16 22-39 53-6 9 10 19 25 31 45 27 9 56 20 82 24 22-12 48-19 65-19 27-1 28 30 18 40z m-229-89c6 16 28 35 35 41-22-35-35-42-35-41z m95 222c9 0 8-37 2-47-5 16-5 47-2 47z m-28-159c11 20 21 43 28 64 10-18 23-32 36-42-25-4-46-15-64-22z m153 6c0 0-6-7-43 9 41 3 47-6 43-9z"/>
<glyph glyph-name="search-solid" unicode="&#57353;" d="M505 69l-100 100c-4 4-10 7-17 7l-16 0c28 35 44 80 44 128 0 115-93 208-208 208-115 0-208-93-208-208 0-115 93-208 208-208 48 0 93 16 128 44l0-16c0-7 3-13 7-17l100-100c9-9 24-9 34 0l28 28c9 10 9 25 0 34z m-297 107c-71 0-128 57-128 128 0 71 57 128 128 128 71 0 128-57 128-128 0-71-57-128-128-128z"/>
<glyph glyph-name="user-cog-light" unicode="&#57378;" d="M503 174l-14 8c1 7 1 13 0 20l14 8c7 4 11 13 8 21-6 19-16 37-29 51-6 7-16 8-23 4l-13-8c-6 4-12 8-18 10l0 16c0 8-6 16-15 18-19 4-39 4-58 0-9-2-15-10-15-18l0-16c-6-2-12-6-18-10l-13 8c-7 4-17 3-23-4-13-14-23-32-29-50-3-9 1-18 8-22l14-8c-1-7-1-14 0-20l-14-8c-7-4-11-13-8-22 6-18 16-36 29-50 6-7 16-8 23-4l13 8c6-4 12-8 18-11l0-15c0-9 6-16 15-18 9-2 19-3 29-3 10 0 20 1 29 3 9 2 15 10 15 18l0 15c6 3 12 7 18 11l13-8c7-4 17-3 23 4 13 14 23 32 29 50 3 9-1 18-8 22z m-42-6l24-13c-4-12-11-22-18-32l-24 14c-17-15-19-16-41-24l0-27c-12-2-24-2-36 0l0 27c-22 8-24 10-41 24l-24-14c-7 10-14 20-18 32l24 13c-4 22-5 25 0 48l-24 13c4 12 11 22 18 32l24-14c17 15 19 16 41 24l0 27c12 2 24 2 36 0l0-27c22-8 24-9 41-24l24 14c7-10 14-20 18-32l-24-13c4-22 5-25 0-48z m-77 76c-28 0-52-24-52-52 0-28 24-52 52-52 28 0 52 24 52 52 0 28-24 52-52 52z m0-78c-14 0-26 12-26 26 0 14 12 26 26 26 14 0 26-12 26-26 0-14-12-26-26-26z m-205 90c57 0 103 46 103 102 0 57-46 103-103 103-56 0-102-46-102-103 0-56 46-102 102-102z m0 179c43 0 77-34 77-77 0-42-34-76-77-76-42 0-77 34-77 76 0 43 35 77 77 77z m-141-358c-7 0-12 6-12 13l0 33c0 45 36 82 82 82 15 0 31-13 71-13 16 0 31 3 45 7 1 9 2 18 4 27-7-2-24-8-49-8-37 0-48 12-71 12-60 0-108-48-108-107l0-33c0-22 17-39 38-39l270 0c-13 7-24 16-35 26z"/>
<glyph glyph-name="file-search-light-1" unicode="&#57364;" d="M510 51l-79 79c15 19 24 43 24 69 0 63-51 114-114 114-62 0-113-51-113-114 0-63 51-114 113-114 27 0 51 10 70 25l79-79c3-3 7-3 10 0l10 10c3 2 3 7 0 10z m-169 63c-47 0-85 38-85 85 0 47 38 85 85 85 47 0 86-38 86-85 0-47-39-85-86-85z m-42-57l-256 0c-8 0-15 6-15 14l0 370c0 8 7 14 15 14l156 0 0-92c0-12 10-22 21-22 0 0 0 0 0 0l121 0 0 25c0 12-4 22-12 30l-75 75c-8 8-19 13-30 13l-181 0c-24-1-43-20-43-43l0-370c0-23 19-43 43-43l256 0c18 0 34 12 40 29-10 0-21 2-30 4-3-3-7-4-10-4z m-71 398c2-1 4-2 6-4l75-75c2-2 3-4 3-6l-84 0z"/>
</font>
</defs>
</svg>
