<svg version="1.1" id="Calque_1" xmlns="http://www.w3.org/2000/svg" xmlns:xlink="http://www.w3.org/1999/xlink" x="0" y="0" width="348.1" height="403.3" xml:space="preserve"><style>.st0{fill:#ddd7ce}.st1{fill:#e2e2e2}.st2{fill:#efefef}.st3{fill:#cecece}.st4{fill:#fff}.st5{fill:#d6d6d6}.st6{fill:#c9c9c9}.st11{fill:#c0e9f2}.st12{fill:#ff945f}.st14{fill:#fcdf97}.st15{fill:#7f4e29}.st16{fill:#666}.st17{fill:#ffc44d}.st18{fill:#92c4cc}.st19{fill:#c1c1c1}.st24{fill:#07d6b3}.st25{fill:#03f4d1}.st26{fill:#ff5c99}.st29{fill:#424242}.st30{fill:#ff6679}.st31{fill:#ff8398}.st49{fill:#fedc78}.st50{fill:#bcbcbc}.st51{font-family:&apos;Bebas&apos;}.st52{font-size:5.8374px}.st64{fill:#4d5459}</style><path class="st0" d="M150.7 364.1c-29.8 17.2-78.2 17.2-108 0-29.8-17.2-29.8-45.1 0-62.4 29.8-17.2 78.2-17.2 108 0 29.8 17.2 29.8 45.2 0 62.4zM244.3 316.3c-1-.6-2.3-.6-3.9.3-.5.3-.9.6-1.3 1l-1.7-.9c7.6-6 8.8-13.9 3.8-20.5v10.1h-.7c-.8 3.4-3.3 5.5-8.3 8.4-12.5 7.2-34.9 7.2-47.4 0-5.1-2.9-7.5-4.8-8.4-8.4h-.8v-10.5c-6.2 7.7-3.8 17.1 7.2 23.4 13.4 7.8 34.9 8.1 49 1 .2.2.5.3.5.4l5.1 2.9a9.6 9.6 0 00-.6 3.3c0 .8.2 1.4.5 2l.4.6c.4.5 1.3 1 1.5 1.1l44 25.3 3-1.9-41.9-37.6zM270.9 303.3c-1.7 1-4.4 1-6.1 0l-139.2-80.4c-1.7-1-1.7-2.6 0-3.6s4.4-1 6.1 0l139.2 80.4c1.7 1 1.7 2.6 0 3.6z"/><path class="st1" d="M48.3 299.9l33.8-19.5v-6.6L0 265.4v6.6z"/><path class="st1" d="M48.3 299.9v-6.6L0 265.4v6.6z"/><path class="st2" d="M48.3 293.3l33.8-19.5-48.3-27.9L0 265.4z"/><path class="st3" d="M30.6 271c-.5-2.1.5-4.2 3.1-5.7s6.2-2.1 9.8-1.8c2.9.2 5.7 1 8 2.4.3.2.6.4.9.5-2 1.6-4.7 3.4-7.7 5.2-3.1 1.8-6.2 3.3-9 4.5-.3-.2-.6-.3-.9-.5-2.4-1.4-3.8-3-4.2-4.6z"/><path class="st3" d="M34.7 275.6c-2.3-1.3-3.7-3-4.1-4.6-.4-1.7.2-3.4 1.8-4.8-.9 3.1 2.7 6 6.3 8.5-1.1.5-2.1 1-3.1 1.4-.3-.2-.6-.4-.9-.5z"/><path class="st3" d="M37.8 263.4s2.4.6 2.3 2.6c-2.7.2-4.2.5-4.2.5L35 269s-4 .3-4.5-1.4c-.4-1.6 7.3-4.2 7.3-4.2zM24.8 266.6s-1.9-.4-2.5-.1c-.6.3.4 1.1 2 1.4 1.6.3 3.7-.1 3-.5-.6-.5-2.5-.8-2.5-.8zM36.2 260s-.7-1.1-.1-1.4c.5-.3 1.8.2 2.4 1.2.6.9-.2 2.1-.9 1.8-.8-.5-1.4-1.6-1.4-1.6z"/><path class="st4" d="M22.6 266c4.1 2.3 10.7 2.3 13.6.6 2.6-1.5 3-5.5-1-7.9-4.1-2.3-10.2-2.6-13.6-.6-3.5 2-3.1 5.6 1 7.9z"/><path class="st3" d="M22.5 266.1c-4.1-2.4-4.6-6-1-8 3.5-2 9.8-1.8 13.9.6 4.3 2.5 3.6 6.6 1 8-3 1.7-9.7 1.8-13.9-.6zm.2-.2c4.1 2.4 10.6 2.3 13.4.6 2.4-1.4 2.9-5.4-1-7.8-4-2.3-10-2.6-13.4-.6-3.5 2-3 5.5 1 7.8z"/><path class="st3" d="M30.9 258.2s-1.7 3.4-6.8 5.9c1.2-1 .3-1.5.3-1.5s-.3 1.1-1.2 1.6c.2.8 1.1 1.1.9 1.7-.3.7 1.2 1.2 1.2 1.2s-2.4-.9-3.3-1c-.9-.2-5.5-2.6-3.1-4.3-1.1-2.6 4.5-5.5 9-5.5 4.4 0 7.9 1.8 8.8 3.5-1-.4-1.6-.9-2.4-.8-.8 0-2.4-.1-3.4-.8z"/><g><path class="st4" d="M54.9 266.6l.7 1.1-1.2 1h2l1.2.9.6-1.1 1.9-.3-1.6-.7v-1.2l-1.6.7zM50.2 269.4l.6 1.1-1.2.9h2.1l1.1 1 .7-1.2 1.9-.3-1.7-.7.1-1.2-1.7.7zM45.4 272.1l.7 1.1-1.2 1 2-.1 1.2 1 .6-1.1 2-.4-1.7-.7v-1.1l-1.6.7zM40.7 274.8l.7 1.1-1.3 1h2.1l1.2.9.6-1.1 1.9-.3-1.6-.7v-1.2l-1.7.7zM36 277.6l.6 1.1-1.2.9h2l1.2 1 .6-1.2 2-.3-1.7-.7v-1.2l-1.6.7z"/></g><g><path class="st3" d="M54.4 275.1l12.2-7.1-.6-.4-12.3 7.1zM40.3 285.5l28.3-16.4-.3-.1L40 285.3zM41.8 286.3L70.1 270l-.3-.2-28.3 16.3zM43.3 287.2l28.3-16.3-.3-.2L43 287zM44.8 288.1l28.3-16.4-.3-.2-28.3 16.4zM46.3 288.9l28.3-16.3-.3-.2L46 288.7zM47.8 289.8l28.3-16.3-.3-.2-28.3 16.3z"/></g><g><path class="st1" d="M64.6 295l33.8-19.5v-6.6l-82.2-8.4v6.6z"/><path class="st5" d="M64.6 295v-6.6l-48.4-27.9v6.6z"/><path class="st2" d="M64.6 288.4l33.8-19.5L50 241l-33.8 19.5z"/><path class="st3" d="M46.8 266.1c-.5-2.1.5-4.2 3.1-5.7s6.2-2.1 9.8-1.8c2.9.2 5.7 1 8 2.4.3.2.6.4.9.5-2 1.6-4.7 3.4-7.7 5.2-3.1 1.8-6.2 3.3-9 4.5-.3-.2-.6-.3-.9-.5-2.4-1.3-3.7-3-4.2-4.6z"/><path class="st3" d="M50.9 270.7c-2.3-1.3-3.7-3-4.1-4.6-.4-1.7.2-3.4 1.8-4.8-.9 3.1 2.7 6 6.3 8.5-1.1.5-2.1 1-3.1 1.4-.3-.2-.6-.3-.9-.5z"/><path class="st3" d="M54.1 258.5s2.4.6 2.3 2.6c-2.7.2-4.2.5-4.2.5l-.9 2.5s-4 .3-4.5-1.4c-.5-1.6 7.3-4.2 7.3-4.2zM41 261.7s-1.9-.4-2.5-.1c-.6.3.4 1.1 2 1.4 1.6.3 3.7-.1 3-.5-.6-.5-2.5-.8-2.5-.8zM52.4 255.1s-.7-1.1-.1-1.4c.5-.3 1.8.2 2.4 1.2.6.9-.2 2.1-.9 1.8-.8-.5-1.4-1.6-1.4-1.6z"/><path class="st4" d="M38.8 261.1c4.1 2.3 10.7 2.3 13.6.6 2.6-1.5 3-5.5-1-7.9-4.1-2.3-10.2-2.6-13.6-.6-3.5 2.1-3 5.6 1 7.9z"/><path class="st3" d="M38.7 261.2c-4.1-2.4-4.6-6-1-8 3.5-2 9.8-1.8 13.9.6 4.3 2.5 3.6 6.6 1 8-3 1.7-9.7 1.8-13.9-.6zm.3-.1c4.1 2.4 10.6 2.3 13.4.6 2.4-1.4 2.9-5.4-1-7.7-4-2.3-10-2.6-13.4-.6-3.5 1.9-3 5.4 1 7.7z"/><path class="st3" d="M47.1 253.3s-1.7 3.4-6.8 5.9c1.2-1 .3-1.5.3-1.5s-.3 1.1-1.2 1.6c.2.8 1.1 1.1.9 1.7-.3.7 1.2 1.2 1.2 1.2s-2.4-.9-3.3-1c-.9-.2-5.5-2.6-3.1-4.3-1.1-2.6 4.5-5.5 9-5.5 4.4 0 7.9 1.8 8.8 3.5-1-.4-1.6-.9-2.4-.8-.8 0-2.3-.1-3.4-.8z"/><g><path class="st4" d="M71.2 261.7l.6 1.2-1.2.9h2l1.2 1 .6-1.2 2-.3-1.7-.7v-1.2l-1.6.7zM66.4 264.5l.7 1.1-1.2.9h2l1.2 1 .6-1.1 2-.4-1.7-.7v-1.1l-1.6.7zM61.7 267.2l.6 1.1-1.2 1h2.1l1.2.9.6-1.1 1.9-.3-1.7-.7.1-1.2-1.7.7zM57 270l.6 1.1-1.2.9h2l1.2 1 .6-1.2 2-.3-1.7-.7v-1.2l-1.6.7zM52.2 272.7l.7 1.1-1.3 1 2.1-.1 1.2 1 .6-1.1 1.9-.4-1.6-.7v-1.1l-1.6.7z"/></g><g><path class="st3" d="M70.6 270.2l12.3-7.1-.7-.4-12.3 7.1zM56.6 280.6l28.3-16.3-.4-.2-28.2 16.3zM58.1 281.5l28.3-16.4-.4-.2-28.2 16.4zM59.6 282.3L87.9 266l-.4-.2-28.2 16.3zM61.1 283.2l28.3-16.3-.4-.2L60.8 283zM62.6 284.1l28.3-16.4-.4-.2-28.2 16.4zM64.1 284.9l28.2-16.3-.3-.2-28.2 16.3z"/></g></g><g><path class="st1" d="M51 283.3l33.8-19.5v-6.7l-82.1-8.4v6.6z"/><path class="st1" d="M51 283.3v-6.6l-48.3-28v6.6z"/><path class="st2" d="M51 276.7l33.8-19.6-48.4-27.9-33.7 19.5z"/><path class="st3" d="M33.2 254.3c-.5-2.1.5-4.2 3.1-5.7s6.2-2.1 9.8-1.8c2.9.2 5.7 1 8 2.4.3.2.6.4.9.5-2 1.6-4.7 3.4-7.7 5.2-3.1 1.8-6.2 3.3-9 4.5-.3-.2-.6-.3-.9-.5-2.4-1.3-3.7-2.9-4.2-4.6z"/><path class="st3" d="M37.3 259c-2.3-1.3-3.7-3-4.1-4.6-.4-1.7.2-3.4 1.8-4.8-.9 3.1 2.7 6 6.3 8.5-1.1.5-2.1 1-3.1 1.4-.3-.2-.6-.4-.9-.5z"/><path class="st3" d="M40.5 246.8s2.4.6 2.3 2.6c-2.7.2-4.2.5-4.2.5l-.9 2.5s-4 .3-4.5-1.4c-.5-1.6 7.3-4.2 7.3-4.2zM27.4 249.9s-1.9-.4-2.5-.1c-.6.3.4 1.1 2 1.4 1.6.3 3.7-.1 3-.5-.5-.4-2.5-.8-2.5-.8zM38.8 243.4s-.7-1.1-.1-1.4c.5-.3 1.8.2 2.4 1.2.6.9-.2 2.1-.9 1.8-.7-.5-1.4-1.6-1.4-1.6z"/><path class="st4" d="M25.3 249.4c4.1 2.3 10.7 2.3 13.6.6 2.6-1.5 3-5.5-1-7.9-4.1-2.3-10.2-2.6-13.6-.6-3.6 2-3.1 5.5 1 7.9z"/><path class="st3" d="M25.1 249.4c-4.1-2.4-4.6-6-1-8 3.5-2 9.8-1.8 13.9.6 4.3 2.5 3.6 6.6 1 8-3 1.8-9.7 1.9-13.9-.6zm.3-.1c4.1 2.4 10.6 2.3 13.4.6 2.4-1.4 2.9-5.4-1.1-7.8-4-2.3-10-2.6-13.4-.6-3.4 2-2.9 5.5 1.1 7.8z"/><path class="st3" d="M33.5 241.6s-1.7 3.4-6.8 5.9c1.2-1 .3-1.5.3-1.5s-.3 1.1-1.2 1.6c.2.8 1.1 1.1.9 1.7-.3.7 1.2 1.2 1.2 1.2s-2.4-.9-3.3-1c-.9-.2-5.5-2.6-3.1-4.3-1.1-2.6 4.5-5.5 9-5.5 4.4 0 7.9 1.8 8.8 3.5-1-.4-1.6-.9-2.4-.8-.8 0-2.3-.1-3.4-.8z"/><g><path class="st4" d="M57.6 250l.6 1.1-1.2 1h2.1l1.1.9.6-1.1 2-.4-1.7-.6.1-1.2-1.7.7zM52.8 252.7l.7 1.2-1.2.9h2l1.2 1 .6-1.2 2-.3-1.7-.7v-1.2l-1.6.7zM48.1 255.5l.7 1.1-1.3.9h2.1l1.2 1 .6-1.1 1.9-.4-1.6-.7v-1.2l-1.7.8zM43.4 258.2l.6 1.1-1.2 1h2l1.2.9.6-1.1 2-.4-1.7-.6v-1.2l-1.6.7zM38.6 260.9l.7 1.2-1.2.9h2l1.2 1 .6-1.2 1.9-.3-1.6-.7v-1.2l-1.6.7z"/></g><g><path class="st3" d="M57 258.5l12.3-7.1-.7-.4-12.3 7.1zM43 268.8l28.3-16.3-.4-.2-28.2 16.4zM44.5 269.7l28.3-16.3-.4-.2-28.2 16.3zM46 270.6l28.3-16.3-.4-.2-28.2 16.3zM47.5 271.4l28.3-16.3-.4-.2-28.2 16.4zM49 272.3L77.3 256l-.4-.2-28.2 16.3zM50.5 273.2l28.3-16.3-.4-.2L50.2 273z"/></g></g><g><path class="st6" d="M61.6 280l33.8-19.5v-6.7l-82.2-8.4v6.6z"/><path class="st5" d="M61.6 280v-6.7l-48.4-27.9v6.6z"/><path class="st2" d="M61.6 273.3l33.8-19.5L47 225.9l-33.8 19.5z"/><path class="st3" d="M43.8 251c-.5-2.1.5-4.2 3.1-5.7s6.2-2.1 9.8-1.8c2.9.2 5.7 1 8 2.4.3.2.6.4.9.5-2 1.6-4.7 3.4-7.7 5.2-3.1 1.8-6.2 3.3-9 4.5-.3-.2-.6-.3-.9-.5-2.4-1.3-3.7-2.9-4.2-4.6z"/><path class="st3" d="M47.9 255.6c-2.3-1.3-3.7-3-4.1-4.6-.4-1.7.2-3.4 1.8-4.8-.9 3.1 2.7 6 6.3 8.5-1.1.5-2.1 1-3.1 1.4-.3-.1-.6-.3-.9-.5z"/><path class="st3" d="M51.1 243.5s2.4.6 2.3 2.6c-2.7.2-4.2.5-4.2.5l-.9 2.5s-4 .3-4.5-1.4c-.5-1.6 7.3-4.2 7.3-4.2zM38 246.6s-1.9-.4-2.5-.1c-.6.3.4 1.1 2 1.4 1.6.3 3.7-.1 3-.5-.5-.4-2.5-.8-2.5-.8zM49.4 240.1s-.7-1.1-.1-1.4c.5-.3 1.8.2 2.4 1.2.6.9-.2 2.1-.9 1.8-.8-.5-1.4-1.6-1.4-1.6z"/><path class="st4" d="M35.9 246.1c4.1 2.3 10.7 2.3 13.6.6 2.6-1.5 3-5.5-1-7.9-4.1-2.3-10.2-2.6-13.6-.6-3.6 2-3.1 5.5 1 7.9z"/><path class="st3" d="M35.7 246.1c-4.1-2.4-4.6-6-1-8 3.5-2 9.8-1.8 13.9.6 4.3 2.5 3.6 6.6 1 8-3 1.8-9.7 1.9-13.9-.6zm.3-.1c4.1 2.4 10.6 2.3 13.4.6 2.4-1.4 2.9-5.4-1-7.8-4-2.3-10-2.6-13.4-.6-3.5 2-3 5.5 1 7.8z"/><path class="st3" d="M44.1 238.3s-1.7 3.4-6.8 5.9c1.2-1 .3-1.5.3-1.5s-.3 1.1-1.2 1.6c.2.8 1.1 1.1.9 1.7-.3.7 1.2 1.2 1.2 1.2s-2.4-.9-3.3-1c-.9-.2-5.5-2.6-3.1-4.3-1.1-2.6 4.5-5.5 9-5.5 4.4 0 7.9 1.8 8.8 3.5-1-.4-1.6-.9-2.4-.8-.8 0-2.3-.1-3.4-.8z"/><g><path class="st4" d="M68.2 246.7l.6 1.1-1.2 1 2.1-.1 1.1 1 .6-1.1 2-.4-1.7-.6.1-1.2-1.7.7zM63.4 249.4l.7 1.2-1.2.9h2l1.2.9.6-1.1 2-.3-1.7-.7v-1.2l-1.6.7zM58.7 252.2l.7 1.1-1.3.9h2.1l1.2 1 .6-1.1 1.9-.4-1.7-.7.1-1.2-1.7.7zM54 254.9l.6 1.1-1.2 1h2l1.2.9.6-1.1 2-.4-1.7-.6v-1.2l-1.6.7zM49.2 257.6l.7 1.2-1.2.9h2l1.2 1 .6-1.2 1.9-.3-1.6-.7v-1.2l-1.6.7z"/></g><g><path class="st3" d="M67.6 255.2l12.3-7.1-.7-.4-12.3 7.1zM53.6 265.5l28.3-16.3-.4-.2-28.2 16.3zM55.1 266.4l28.3-16.3-.4-.2-28.2 16.3zM56.6 267.3L84.9 251l-.4-.2-28.2 16.3zM58.1 268.1l28.3-16.3-.4-.2-28.2 16.3zM59.6 269l28.3-16.3-.4-.2-28.2 16.3zM61.1 269.9l28.3-16.3-.4-.2-28.2 16.3z"/></g></g><g><path class="st6" d="M50.9 271.3l33.8-19.5v-6.6l-82.1-8.4v6.6z"/><path class="st1" d="M50.9 271.3v-6.6L2.6 236.8v6.6z"/><linearGradient id="SVGID_1_" gradientUnits="userSpaceOnUse" x1="2.581" y1="240.979" x2="84.707" y2="240.979"><stop offset="0" stop-color="#efefef"/><stop offset="1" stop-color="#f5f5f5"/></linearGradient><path fill="url(#SVGID_1_)" d="M50.9 264.7l33.8-19.5-48.3-27.9-33.8 19.5z"/><path class="st3" d="M33.2 242.4c-.5-2.1.5-4.2 3.1-5.7s6.2-2.1 9.8-1.8c2.9.2 5.7 1 8 2.4.3.2.6.4.9.5-2 1.6-4.7 3.4-7.7 5.2-3.1 1.8-6.2 3.3-9 4.5-.3-.2-.6-.3-.9-.5-2.5-1.3-3.8-3-4.2-4.6z"/><path class="st3" d="M37.2 247c-2.3-1.3-3.7-3-4.1-4.6-.4-1.7.2-3.4 1.8-4.8-.9 3.1 2.7 6 6.3 8.5-1.1.5-2.1 1-3.1 1.4-.2-.2-.5-.3-.9-.5z"/><path class="st3" d="M40.4 234.8s2.4.6 2.3 2.6c-2.7.2-4.2.4-4.2.4l-.9 2.5s-4 .3-4.5-1.4c-.5-1.5 7.3-4.1 7.3-4.1zM27.4 238s-1.9-.4-2.5-.1c-.6.3.4 1.1 2 1.4 1.6.3 3.7-.1 3-.5-.6-.5-2.5-.8-2.5-.8zM38.8 231.4s-.7-1.1-.1-1.4c.5-.3 1.8.2 2.4 1.2.6.9-.2 2.1-.9 1.8-.8-.5-1.4-1.6-1.4-1.6z"/><path class="st4" d="M25.2 237.4c4.1 2.3 10.7 2.3 13.6.6 2.6-1.5 3-5.5-1-7.9-4.1-2.3-10.2-2.6-13.6-.6-3.5 2-3.1 5.6 1 7.9z"/><path class="st3" d="M25.1 237.5c-4.1-2.4-4.6-6-1.1-8 3.5-2 9.8-1.8 13.9.6 4.3 2.5 3.6 6.6 1 8-2.9 1.7-9.6 1.8-13.8-.6zm.2-.1c4.1 2.4 10.6 2.3 13.4.6 2.4-1.4 2.9-5.4-1-7.8-4-2.3-10-2.6-13.4-.6-3.5 2-3 5.4 1 7.8z"/><path class="st3" d="M33.4 229.6s-1.7 3.4-6.8 5.9c1.2-1 .3-1.5.3-1.5s-.3 1.1-1.2 1.6c.2.8 1.1 1.1.9 1.7-.3.7 1.2 1.2 1.2 1.2s-2.4-.9-3.3-1c-.9-.2-5.5-2.6-3.1-4.3-1.1-2.6 4.5-5.5 9-5.5 4.4 0 7.9 1.8 8.8 3.5-1-.4-1.6-.9-2.4-.8-.8 0-2.3-.1-3.4-.8z"/><g><path class="st4" d="M57.5 238l.7 1.2-1.3.9H59l1.2 1 .6-1.2 1.9-.3-1.6-.7v-1.2l-1.7.7zM52.8 240.8l.6 1.1-1.2.9h2l1.2 1 .6-1.1 2-.4-1.7-.7v-1.2l-1.6.8zM48 243.5l.7 1.1-1.2 1h2l1.2.9.6-1.1 2-.4-1.7-.6v-1.2l-1.6.7zM43.3 246.2l.6 1.2-1.2.9h2.1l1.1 1 .7-1.2 1.9-.3-1.7-.7.1-1.2-1.7.7zM38.5 249l.7 1.1-1.2.9h2l1.2 1 .6-1.1 2-.4-1.7-.7v-1.1l-1.6.7z"/></g><g><path class="st3" d="M56.9 246.5l12.3-7.1-.7-.4-12.2 7.1zM42.9 256.9l28.3-16.3-.3-.2-28.3 16.3zM44.4 257.7l28.3-16.3-.3-.2-28.3 16.4zM45.9 258.6l28.3-16.3-.3-.2-28.3 16.3zM47.4 259.5l28.3-16.3-.3-.2-28.3 16.3zM48.9 260.3L77.2 244l-.4-.2-28.2 16.4zM50.4 261.2l28.3-16.3-.4-.2L50.1 261z"/></g></g><g><path d="M130.1 211.1c0 3.7 2.6 8.2 5.8 10l129.5 77.1c3.2 1.8 6.8-1.4 6.8-5.1V86c0-3.7-2.6-8.2-5.8-10L135.8.7c-3.2-1.8-7.8.3-7.8 4l2.1 206.4z" fill="#4461a0"/><linearGradient id="SVGID_2_" gradientUnits="userSpaceOnUse" x1="129.669" y1="219.17" x2="267.883" y2="80.955"><stop offset="0" stop-color="#2b4381"/><stop offset="1" stop-color="#4064c2"/></linearGradient><path d="M127.8 212.6c0 3.7 2.6 8.2 5.8 10L264 297.9c3.2 1.8 5.8.4 5.8-3.3V87.5c0-3.7-2.6-8.2-5.8-10L133.6 2.2c-3.2-1.8-5.8-.3-5.8 3.3v207.1z" fill="url(#SVGID_2_)"/><path class="st3" d="M138.6 205.4l120.8 69.7V90.7L138.6 21z"/><path fill="#f7f7f7" d="M137.7 206.1l120.7 69.7V91.4L137.7 21.7z"/><path class="st11" d="M239.7 221.9l-81.8-47.2V39.6l81.8 47.2z"/><path class="st12" d="M214.4 128.5c-3.7-7.9-9.3-14.8-15.6-18.5-6.3-3.6-11.9-3.2-15.6.4-2.9 2.9-4.7 7.7-4.7 14.1 0 .9 0 1.7.1 2.6 5.9 4.5 12.8 9.1 20.2 13.4 7.5 4.3 14.4 7.7 20.2 10 .1-.8.1-1.6.1-2.5 0-6.3-1.8-13.2-4.7-19.5z"/><path d="M219.1 148.1c0-6.4-1.8-13.3-4.7-19.6-3-6.5-7.3-12.3-12.2-16.1 7.6 10.8 9.4 23.8 10.2 35.3 2.4 1.1 4.6 2.1 6.7 2.9v-2.5z" fill="#f27f4c"/><path class="st4" d="M189.8 106.1s-1.6 3.8 2.6 11c3.7-1.1 6-1.3 6-1.3l6.4 8.5s5.3-1.8 2.6-8c-2.8-6.2-17.6-10.2-17.6-10.2z"/><path class="st14" d="M212.2 108.5s1.6-2.7 2.9-2c1.3.7 1.8 4.1.5 6.5-1.3 2.4-4.7 2.2-4.8.2-.2-2.1 1.4-4.7 1.4-4.7zM184.6 92.5s-1.6-4.5-2.9-5.3c-1.3-.8-1.8 2.1-.5 5.9 1.3 3.9 4.7 7.6 4.8 5.7.2-1.8-1.4-6.3-1.4-6.3z"/><path class="st14" d="M213.7 104.9c0 11.3-8.1 15.9-15.2 11.7-6.2-3.6-15.3-18-15.3-29.4 0-11.3 6.8-16.6 15.3-11.7 8.3 4.9 15.2 18.1 15.2 29.4z"/><path class="st15" d="M186.9 85.4s2.2 10 20.2 8.9c1.1 6.6 3 9 4.7 11.3 1.7 2.3 1 5.2 1 5.2s1.1-4.8 1.9-6.1c.8-1.3 4.1-13.7-8.2-23.1-4.1-10.2-15.8-14.5-21.3-11.6-5.5 2.9-4 15.1-1.5 22 .3-2.1.1-4.2 1.2-4.6 1-.3 1.6-.6 2-2z"/><path class="st16" d="M192.6 96.2c0 .5-.2.8-.5.6-.3-.2-.5-.7-.5-1.2s.2-.8.5-.6c.3.2.5.7.5 1.2zM205.3 103.5c0 .5-.2.8-.5.6-.3-.2-.5-.7-.5-1.2s.2-.8.5-.6c.2.1.5.7.5 1.2z"/><g><path class="st17" d="M175.8 129.8l1.6 4.5 3.5 2.6-2.6 1.3.6 4.4-3.1-3.7-3.1.1.6-3.7-2.5-4.2 3.5 1.4zM187.3 136.4l1.6 4.5 3.4 2.6-2.5 1.4.6 4.3-3.1-3.7-3.1.1.6-3.6-2.5-4.3 3.5 1.4zM198.8 143l1.5 4.5 3.5 2.6-2.5 1.4.6 4.3-3.1-3.7-3.1.1.6-3.6-2.5-4.3 3.4 1.4zM210.2 149.6l1.6 4.6 3.5 2.5-2.5 1.4.6 4.3-3.2-3.6-3.1.1.6-3.7-2.5-4.3 3.5 1.5zM221.7 156.2l1.6 4.6 3.4 2.6-2.5 1.3.6 4.4-3.1-3.7-3.1.1.6-3.7-2.5-4.2 3.5 1.4z"/></g><g><path class="st18" d="M194.3 160.1l-29.7-17.2v-1.8l29.7 17.1zM233 188l-68.4-39.5v-.9l68.4 39.5zM233 192.2l-68.4-39.5v-.9l68.4 39.5zM233 196.4l-68.4-39.5v-.9l68.4 39.5zM233 200.6l-68.4-39.5v-1l68.4 39.6zM233 204.8l-68.4-39.5v-1l68.4 39.5zM233 209l-68.4-39.5v-1L233 208z"/></g><g><path class="st19" d="M172.8 49v-6c0-3.8 2.7-5.4 6-3.5l39.9 23c3.3 1.9 6 6.6 6 10.4v6c0 3.8-2.7 5.4-6 3.5l-39.9-23c-3.3-1.9-6-6.6-6-10.4zm6-6.2c-1.7-1-3.1-.2-3.1 1.8v6c0 2 1.4 4.4 3.1 5.4l39.9 23c1.7 1 3.1.2 3.1-1.8v-6c0-2-1.4-4.4-3.1-5.4l-39.9-23z"/></g><g><path class="st11" d="M327 286.4l-81.7-47.2-.1-135.2 81.8 47.3z"/><path d="M301.8 193c-3.7-7.9-9.3-14.8-15.6-18.5-6.3-3.6-11.9-3.2-15.6.4-2.9 2.9-4.7 7.7-4.7 14.1 0 .9 0 1.7.1 2.6 5.9 4.5 12.8 9.1 20.2 13.4 7.5 4.3 14.4 7.7 20.3 10 .1-.8.1-1.6.1-2.5-.1-6.3-1.9-13.2-4.8-19.5z" fill="#00e2bc"/><path d="M306.5 212.6c0-6.4-1.8-13.3-4.7-19.6-3-6.5-7.3-12.3-12.2-16.1 7.6 10.8 9.4 23.8 10.2 35.3 2.4 1.1 4.6 2.1 6.7 2.9v-2.5z" fill="#00d3aa"/><path class="st4" d="M277.7 170s-2.1 10.2 2.1 17.5c3.7-1.1 6-1.3 6-1.3l6.4 8.5s5.8-2.1 1.8-13.7c-2.7-6.2-16.3-11-16.3-11z"/><path class="st17" d="M263.2 194.2l1.6 4.6 3.4 2.5-2.5 1.4.6 4.4-3.1-3.7-3.1.1.6-3.7-2.5-4.3 3.4 1.5zM274.7 200.9l1.5 4.5 3.5 2.6-2.5 1.3.6 4.4-3.1-3.7-3.1.1.6-3.7-2.5-4.2 3.4 1.4zM286.1 207.5l1.6 4.5 3.5 2.6-2.5 1.4.5 4.3-3.1-3.7-3.1.1.6-3.6-2.5-4.3 3.5 1.4z"/><path class="st4" d="M297.6 214.1l1.6 4.5 3.4 2.6-2.5 1.4.6 4.3-3.1-3.7-3.1.1.6-3.6-2.5-4.3 3.5 1.4zM309.1 220.7l1.5 4.6 3.5 2.5-2.5 1.4.6 4.3-3.1-3.6-3.1.1.6-3.7-2.5-4.3 3.4 1.5z"/><g><path class="st18" d="M281.6 224.6l-29.7-17.2v-1.8l29.7 17.1zM320.4 252.5L251.9 213v-.9l68.5 39.5zM320.4 256.7l-68.5-39.5v-1l68.5 39.6zM320.4 260.9l-68.5-39.5v-1l68.5 39.5zM320.4 265.1l-68.5-39.5v-1l68.5 39.5zM320.4 269.3l-68.5-39.6v-.9l68.5 39.5zM320.4 273.4l-68.5-39.5v-.9l68.5 39.5z"/></g><path d="M278.1 172.2s2.9 8.8 7.7 14.1c6.8 1.6 8.6-3.6 8.6-5.1.1-1.5-16.3-9-16.3-9z" fill="#eaca81"/><g><path class="st14" d="M299.6 172.9s1.6-2.7 2.9-2c1.3.7 1.8 4.1.5 6.5-1.3 2.4-4.7 2.2-4.8.2-.2-2 1.4-4.7 1.4-4.7zM272 157s-1.6-4.5-2.9-5.3c-1.3-.8-1.8 2.1-.5 5.9 1.3 3.9 4.7 7.6 4.8 5.7.1-1.8-1.4-6.3-1.4-6.3z"/><path class="st14" d="M301 169.4c0 11.3-8.1 15.9-15.3 11.7-6.2-3.6-15.2-18-15.2-29.4 0-11.3 6.8-16.6 15.2-11.7 8.5 4.9 15.3 18 15.3 29.4z"/><path class="st16" d="M280 160.7c0 .5-.2.8-.5.6-.3-.2-.5-.7-.5-1.2s.2-.8.5-.6c.3.1.5.7.5 1.2zM292.6 168c0 .5-.2.8-.5.6-.3-.2-.5-.7-.5-1.2s.2-.8.5-.6c.3.1.5.7.5 1.2z"/><path class="st15" d="M299.6 148.8c0 4.4-3.1 6.2-6.9 4-3.8-2.2-6.9-7.6-6.9-12s3.1-6.2 6.9-4c3.8 2.2 6.9 7.6 6.9 12z"/><path d="M299.3 154.2c-1.1 1.7-5.1-.6-9-5.2-3.9-4.6-6.2-9.7-5.2-11.5 1.1-1.7 5.1.6 9 5.2 4 4.7 6.3 9.8 5.2 11.5z" fill="#ffbdc5"/><path class="st15" d="M294.6 156.8s-2.2 5.1-10.1.5c.9.2 1.9-.2 3.1-1.3-4.3.3-4.5 2.4-14.2-2.9 1.3.1 1.4-2.4 1.4-2.4s-1.8 1.1-1.7 4.8c.2 3.7.4 5.5 0 6.9-.5-2.3-1.7-7.4-2.6-8.5-.8-1.2-1.1-11.5 1-14.6 4.6-6.8 17.9-4.1 24.7 10.5 5.9 7.4 5.6 14.7 4.8 21.6-1.1 1.2-1.4 2-1.9 4.6-.7-1.9.1-2.9.1-4.9.1-2.2-4.1-7.3-4.6-14.3z"/></g><g><path class="st24" d="M256.9 120.3c0-2.6-1.8-5.8-4.1-7.1-1.5-.8-2.8-.7-3.5.2-.1.1-.1.2-.2.3-.1.1-.1.2-.2.3 0 .1-.1.1-.1.2-.7 2-1 5.6-2.5 5.4-1.8-.3-2.5.3-2.5.3s2.1 4.5 3.2 6.5c1.4-.1 1.3-4.6 3.8-3.8 3.5 1.1 4.6.4 4.6.4.9-.3 1.5-1.2 1.5-2.7z"/><path class="st25" d="M248 124.7c0 1.6-1.2 2.3-2.6 1.5-1.4-.8-2.6-2.8-2.6-4.5s1.2-2.3 2.6-1.5c1.4.9 2.6 2.9 2.6 4.5z"/></g><g><path class="st24" d="M255 234.3c0-2.6-1.8-5.8-4.1-7.1-1.5-.8-2.8-.7-3.5.2-.1.1-.1.2-.2.3-.1.1-.1.2-.2.3 0 .1-.1.1-.1.2-.7 2-1 5.6-2.5 5.4-1.8-.3-2.5.3-2.5.3s2.1 4.5 3.2 6.5c1.4-.1 1.3-4.6 3.8-3.8 3.5 1.1 4.6.4 4.6.4.9-.3 1.5-1.3 1.5-2.7z"/><path class="st25" d="M246.1 238.7c0 1.6-1.2 2.3-2.6 1.5-1.4-.8-2.6-2.8-2.6-4.5 0-1.6 1.2-2.3 2.6-1.5 1.4.8 2.6 2.8 2.6 4.5z"/></g></g><g><path class="st11" d="M151.7 214.8l-81.8-47.2V32.4l81.8 47.3z"/><path class="st26" d="M126.4 121.4c-3.7-7.9-9.3-14.8-15.6-18.5-6.3-3.6-11.9-3.2-15.6.4-2.9 2.9-4.7 7.7-4.7 14.1 0 .9 0 1.7.1 2.6 5.9 4.5 12.8 9.1 20.3 13.4 7.5 4.3 14.4 7.7 20.3 10 .1-.8.1-1.6.1-2.5-.2-6.3-2-13.2-4.9-19.5z"/><path d="M131.1 141c0-6.4-1.8-13.3-4.7-19.6-3-6.5-7.3-12.3-12.2-16.1 7.6 10.8 9.4 23.8 10.2 35.3 2.4 1.1 4.6 2.1 6.7 2.9V141z" fill="#f25c99"/><path d="M101.8 99s-1.6 3.8 2.6 11c3.7-1.1 6-1.3 6-1.3l6.4 8.5s5.3-1.8 2.6-8C116.6 103 101.8 99 101.8 99z" fill="#ffd9e8"/><path class="st14" d="M124.2 101.3s1.6-2.7 2.9-2c1.3.7 1.8 4.1.5 6.5-1.3 2.4-4.7 2.2-4.8.2-.2-2 1.4-4.7 1.4-4.7zM96.6 85.4s-1.6-4.5-2.9-5.3c-1.3-.8-1.8 2.1-.5 5.9 1.3 3.9 4.7 7.6 4.8 5.7.2-1.8-1.4-6.3-1.4-6.3z"/><path class="st14" d="M125.7 97.8c0 11.3-8.1 15.9-15.3 11.7-6.2-3.6-15.3-18-15.3-29.4 0-11.3 6.8-16.6 15.3-11.7 8.4 4.9 15.3 18 15.3 29.4z"/><path class="st15" d="M99.3 75.3s9.2 11.1 20.5 16.5c-3.5-2.6-3.5-5.3-3.5-5.3s2.6 3.7 4.8 5.1c1.4 3 .9 4.7 2.6 6.9 1.7 2.3 1 5.2 1 5.2s1.1-4.8 1.9-6.1c.8-1.3 1.2-13.2-5.3-17.8-4.2-10.2-17-16.7-22.4-13.8-5.5 2.9-5.8 12-3.3 19 .3-2.1.1-4.2 1.2-4.6 1.1-.4 2.7-1.8 2.5-5.1z"/><path class="st16" d="M104.6 89.1c0 .5-.2.8-.5.6-.3-.2-.5-.7-.5-1.2s.2-.8.5-.6c.3.1.5.7.5 1.2zM117.3 96.4c0 .5-.2.8-.5.6-.3-.2-.5-.7-.5-1.2s.2-.8.5-.6c.2.1.5.7.5 1.2z"/><g><path class="st29" d="M107.5 94.2l-7.5-4.3c-.6-.3-1-1.1-1-1.7v-4.8c0-.6.5-.9 1-.6l7.5 4.3c.6.3 1 1.1 1 1.7v4.8c0 .7-.5.9-1 .6zM100 83.7c-.1-.1-.2 0-.2.1v4.8c0 .1.1.3.2.3l7.5 4.3c.1.1.2 0 .2-.1v-4.8c0-.1-.1-.3-.2-.3l-7.5-4.3zM120.6 101.8l-7.5-4.3c-.6-.3-1-1.1-1-1.7V91c0-.6.5-.9 1-.6l7.5 4.3c.6.3 1 1.1 1 1.7v4.8c0 .7-.4.9-1 .6zm-7.5-10.6c-.1-.1-.2 0-.2.1v4.8c0 .1.1.3.2.3l7.5 4.3c.1.1.2 0 .2-.1v-4.8c0-.1-.1-.3-.2-.3l-7.5-4.3z"/><g><path class="st29" d="M112.3 93.1l-4.2-2.5v-.9l4.2 2.4z"/></g></g><g><path class="st4" d="M87.8 122.6l1.6 4.6 3.4 2.5-2.5 1.4.6 4.4-3.1-3.7-3.1.1.6-3.7-2.5-4.2 3.5 1.4zM99.3 129.3l1.6 4.5 3.4 2.6-2.5 1.3.6 4.4-3.1-3.7-3.1.1.6-3.7-2.5-4.2 3.4 1.4zM110.8 135.9l1.5 4.5 3.5 2.6-2.5 1.4.6 4.3-3.1-3.7-3.1.1.6-3.6-2.5-4.3 3.4 1.4zM122.2 142.5l1.6 4.5 3.5 2.6-2.5 1.4.5 4.3-3.1-3.6h-3.1l.6-3.6-2.5-4.3 3.5 1.4zM133.7 149.1l1.6 4.6 3.4 2.5-2.5 1.4.6 4.4-3.1-3.7-3.1.1.6-3.7-2.5-4.3 3.5 1.5z"/></g><g><path class="st18" d="M106.2 153l-29.6-17.2V134l29.6 17.1zM145 180.9l-68.4-39.5v-.9L145 180zM145 185.1l-68.4-39.5v-1l68.4 39.6zM145 189.3l-68.4-39.5v-1l68.4 39.5zM145 193.5L76.6 154v-1l68.4 39.5zM145 197.7l-68.4-39.6v-.9l68.4 39.5zM145 201.8l-68.4-39.5v-.9l68.4 39.5z"/></g><g><path class="st30" d="M146.1 89.2c0 2.6-1.8 3.7-4.1 2.4-2.3-1.3-4.1-4.5-4.1-7.1 0-2.6 1.8-3.7 4.1-2.4 2.2 1.3 4.1 4.5 4.1 7.1z"/><path class="st30" d="M133 88.9s.7-.7 2.5-.3c1.8.3 1.9-4.8 3-6.2 1.8 3.8 6.1 9.7 6.1 9.7s-1.1.7-4.6-.4c-2.5-.8-2.4 3.7-3.8 3.8-1.1-2.2-3.2-6.6-3.2-6.6z"/><path class="st31" d="M137.2 93.6c0 1.6-1.2 2.3-2.6 1.5-1.4-.8-2.6-2.8-2.6-4.5 0-1.6 1.2-2.3 2.6-1.5 1.4.9 2.6 2.9 2.6 4.5z"/></g><g><path class="st30" d="M145.8 195.6c0 2.6-1.8 3.7-4.1 2.4-2.3-1.3-4.1-4.5-4.1-7.1 0-2.6 1.8-3.7 4.1-2.4 2.2 1.3 4.1 4.5 4.1 7.1z"/><path class="st30" d="M132.7 195.3s.7-.7 2.5-.3c1.8.3 1.9-4.8 3-6.2 1.8 3.8 6.1 9.7 6.1 9.7s-1.1.7-4.6-.4c-2.5-.8-2.4 3.7-3.8 3.8-1.1-2.2-3.2-6.6-3.2-6.6z"/><path class="st31" d="M136.9 200c0 1.6-1.2 2.3-2.6 1.5-1.4-.8-2.6-2.8-2.6-4.5 0-1.6 1.2-2.3 2.6-1.5 1.4.9 2.6 2.9 2.6 4.5z"/></g></g></g><g><path d="M183.1 285.6c-14 8.1-8.6 20.9 5.5 29 14 8.1 38 2.8 45-1.2 14.1-8.1 14.4-19.7.4-27.8-14.1-8.1-36.9-8.1-50.9 0zm48.1 27.7c-12.5 7.2-32.9 7.2-45.4 0s-12.5-19 0-26.2c12.5-7.2 32.9-7.2 45.4 0 12.5 7.3 12.5 19 0 26.2z" fill="#adadad"/><path d="M242.2 294.2v10.1h-.7c-.8 3.4-3.3 5.5-8.3 8.4-12.5 7.2-34.9 7.2-47.4 0-5.1-2.9-7.5-4.8-8.4-8.4h-.8v-10.5c-6.2 7.7-3.8 17.1 7.2 23.4 14 8.1 36.8 8.1 50.9 0 10.7-6.2 13.2-15.4 7.5-23z" fill="#e5e5e5"/><path class="st4" d="M183.8 284.1c-14 8.1-14 21.3 0 29.4 14 8.1 36.8 8.1 50.9 0 14-8.1 14-21.3 0-29.4-14.1-8.1-36.8-8.1-50.9 0zm48.1 27.7c-12.5 7.2-32.9 7.2-45.4 0s-12.5-19 0-26.2c12.5-7.2 32.9-7.2 45.4 0 12.6 7.3 12.6 19 0 26.2z"/><g><path class="st19" d="M254.3 323.8L236 313.4c-.4-.3-.9-.2-1.5.1-1.2.7-2.1 2.3-2.1 3.6 0 .3.1.6.2.8l.2.2c.2.2.5.4.6.4l17.8 10.2 3.1-4.9z"/><linearGradient id="SVGID_3_" gradientUnits="userSpaceOnUse" x1="259.162" y1="338.949" x2="266.219" y2="326.491"><stop offset="0" stop-color="#f42750"/><stop offset=".132" stop-color="#f52d55"/><stop offset=".301" stop-color="#f83d64"/><stop offset=".49" stop-color="#fc577d"/><stop offset=".581" stop-color="#ff668b"/><stop offset=".729" stop-color="#fa4e74"/><stop offset=".89" stop-color="#f63a61"/><stop offset="1" stop-color="#f4335a"/></linearGradient><path d="M291.2 340.7l-46-26.3c-1-.6-2.3-.6-3.8.3-2.9 1.7-5.3 5.7-5.3 9.1 0 .8.2 1.4.5 2l.4.6c.4.5 1.3 1 1.5 1.1l44.9 25.7 7.8-12.5z" fill="url(#SVGID_3_)"/><path d="M292.7 344c0 3.3-2.4 7.4-5.3 9.1-2.9 1.7-5.3.3-5.3-3s2.4-7.4 5.3-9.1c3-1.7 5.3-.3 5.3 3z" fill="#ff668b"/></g></g><g><path fill="#ff7694" d="M281.7 318.4l-8.4-4.8v-27.1l8.4 4.9z"/><path fill="#ff5a85" d="M290 313.6l-8.4 4.8v-27l8.4-4.9z"/><path fill="#ff9fb8" d="M281.7 291.4l-8.4-4.9 8.4-4.8 8.3 4.8z"/><path fill="#49a3db" d="M301 329.7l-8.4-4.9v-41l8.4 4.9z"/><path fill="#2f96c9" d="M309.4 324.8l-8.4 4.9v-41l8.4-4.9z"/><path fill="#7dd6f9" d="M301 288.7l-8.4-4.9 8.4-4.8 8.4 4.8z"/><g><path fill="#b26abf" d="M320.4 340.7l-8.4-4.8v-27.3l8.4 4.9z"/><path fill="#cc75db" d="M328.7 335.9l-8.3 4.8v-27.2l8.3-4.9z"/><path fill="#da8ce5" d="M320.4 313.5l-8.4-4.9 8.4-4.8 8.3 4.8z"/></g><g><path fill="#4cc194" d="M320.3 340.8L312 336v-27.3l8.3 4.9z"/><path fill="#33aa79" d="M328.7 336l-8.4 4.8v-27.2l8.4-4.9z"/><path class="st25" d="M320.3 313.6l-8.3-4.9 8.3-4.8 8.4 4.8z"/></g><g><path fill="#f9d069" d="M339.7 352l-8.4-4.8v-51l8.4 4.8z"/><path fill="#f2bb41" d="M348.1 347.2l-8.4 4.8v-51l8.4-4.8z"/><path class="st49" d="M339.7 301l-8.4-4.8 8.4-4.8 8.4 4.8z"/></g><text transform="matrix(1.0137 .5853 -.866 .5 263.036 318.018)" class="st50 st51 st52">15%</text><text transform="matrix(1.0137 .5853 -.866 .5 282.667 329.31)" class="st50 st51 st52">25%</text><text transform="matrix(1.0137 .5853 -.866 .5 302.3 340.601)" class="st50 st51 st52">15%</text><text transform="matrix(1.0137 .5853 -.866 .5 321.931 351.892)" class="st50 st51 st52">45%</text></g><g><path d="M171.2 310.6h-7.8c-3.5-4-8.1-7.8-13.9-11.2-29-16.7-75.9-16.7-104.9 0-5.4 3.1-9.8 6.6-13.2 10.4l-8.5-.1v20c0 10.9 7.3 21.9 21.7 30.2 29 16.7 75.9 16.7 104.9 0 14.5-8.4 21.7-19.3 21.7-30.2v-19.1z" fill="#7a8389"/><path d="M26.6 309.8h-3.7v20c0 10.9 7.3 21.9 21.7 30.2.1 0 .1.1.2.1v-21.2c-10.1-4.9-13.9-18.4-18.2-29.1z" fill="#f2c555"/><path d="M45.7 339.2c-.3-.1-.5-.2-.8-.4V360c16.2 9.3 38.1 13.4 59.3 12.2v-21.1c-20 .8-40.9-4.1-58.5-11.9z" fill="#6daae2"/><path d="M171.2 310.6h-7.8c-3.5-4-8.1-7.8-13.9-11.2-29-16.7-75.9-16.7-104.9 0-5.4 3.1-9.8 6.6-13.2 10.4h-4.8c4.3 10.7 8.1 24.2 18.2 29.1V336v2.9c.3.1.5.3.8.4 17.7 7.8 38.6 12.7 58.4 12.1v-1.1 1.1c16.6-.6 32.5-5 45.1-14.9v-1.8 1.8c6.7-5.2 12.5-12 17.1-20.5-4.5 8.5-10.4 15.3-17.1 20.5v23.8c.1-.1.2-.1.3-.2 14.5-8.4 21.7-19.3 21.7-30.2v-.1l.1-19.2z" fill="#e54e8c"/><path d="M104.1 351.3v21.1c16.4-.9 32.5-5 45.1-12.2v-23.8c-12.6 9.9-28.5 14.3-45.1 14.9z" fill="#02d1af"/><path d="M149.5 340.9c-29 16.7-75.9 16.7-104.9 0s-29-43.8 0-60.5c29-16.7 75.9-16.7 104.9 0s29 43.8 0 60.5z" fill="#6e777f"/><path class="st12" d="M149.5 280.4c-29-16.7-75.9-16.7-104.9 0h-.1c-28.9 16.7-28.9 43.8.1 60.5.1 0 .1.1.2.1l52.4-30.2 52.5-30.3c-.1 0-.1-.1-.2-.1z"/><path class="st49" d="M30.7 291.6c-13.8 16-9.1 36 14 49.3.1 0 .1.1.2.1l52.4-30.2-66.6-19.2z"/><path class="st26" d="M149.5 340.9c28.9-16.7 28.9-43.7.2-60.4l-52.5 30.3 52.3 30.1z"/><path class="st25" d="M97.2 310.8L44.9 341c29 16.6 75.7 16.6 104.6-.1l-52.3-30.1z"/><path d="M97.2 310.8L44.9 341c16.2 9.3 38 13.4 59.1 12.2l-6.8-42.4z" fill="#8ec2fc"/><path d="M110.4 324.3c-11.9 6.9-31.3 6.9-43.2 0-11.9-6.9-11.9-18 0-24.9 11.9-6.9 31.3-6.9 43.2 0 12 6.8 12 18 0 24.9z" fill="#f9e0b2"/><g><path d="M71.1 234.2S67.4 247 69.2 257c1.8 10 5.3 17.6 5.9 24.1.6 6.5-1.8 13.2-1.2 16.8.6 3.6 16.4 7.2 16.4 7.2s-4.5-2.9-6-9.1c-1.6-6.2-2.2-7-2.2-9.9 0-2.9.9-34.2 1.1-46.2.2-11.8-12.1-5.7-12.1-5.7z" fill="#f9d687"/><path class="st14" d="M97.6 238s-.2 8.5-1.2 12-3.2 32.4-2.2 41.3c1 8.9 8 20.9 10.8 23.1 2.8 2.2.8 2.8-3.6 2.3-4.3-.5-6-7.2-7.8-9.8-1.8-2.6-8.6-5.7-8.6-5.7s1-4.3 1.8-6c.7-1.6-1.6-15.5-3.6-22.2-2.1-6.6-.8-16.7 0-20 .8-3.4-3-15-3-15h17.4z"/><path d="M76.9 314.9h-1.6s-1.8-11-2.2-13c-.5-2-1-6.6 2.4-7.8 3.4-1.2 5.5 1.4 6.7 4 1.2 2.5 6.5 10.1 10 11.4 3.1 1.5 4 3 4 3s1.4 1.3-2.2 1.3-9 .2-11.1-.7c-2.1-.9-2.1-2.8-2.2-4.5-.1-1.8-1.3-3.8-2.2-4.1-.9 5.3-1.6 10.4-1.6 10.4z" fill="#303030"/><path d="M83.1 304.8s.3-5.8 4.5-5.6c4.3.2 6.4 4.5 7.6 8.1 1.2 3.6 1.8 7.1 5.8 7.7 4 .5 4.2-.4 4.2-.4s4.1.1 6.4 1.7c-1.4 2.8-7.2 2.8-11.8 2.9-4.6.1-5.3-.3-6.2-2.4-.8-2.1-2.3-8.6-5.1-8.5L87.2 320h-1.4s-1.8-8.3-2.2-11.3c-.5-3-.7-2.7-.5-3.9z" fill="#444"/><path class="st64" d="M103.1 203.2l-1.9 35.5s-3.3 5.1-15.3 4.3c-12.1-.7-19.3-6.3-19.3-6.3s-.4-7.3-1.4-13.6c-1.1-6.3-4-16.9-4-16.9l41.9-3zM62.2 124.3s-4.3-2.3-6 8.6c-1.7 10.9-1.4 27.5-1.6 31.8-.1 4.2 6.3 6.9 15.5 1 9.1-6.1-7.9-41.4-7.9-41.4z"/><linearGradient id="SVGID_4_" gradientUnits="userSpaceOnUse" x1="56.754" y1="166.342" x2="104.744" y2="166.342"><stop offset="0" stop-color="#5b6269"/><stop offset="1" stop-color="#6e777f"/></linearGradient><path d="M82.8 121.8s15.3 9.1 17.4 18.4c.6 2.8 5.4 6.5 3.3 15.4-2.2 8.9-5.1 20.6-5.1 25.6 0 5.1 6.3 18.3 6.3 25.2-14.7 10.3-37.1 9.2-48 0 .2-19.4 3.8-25.4 8.3-34.2 4.5-8.9-.5-16.5-2.9-24.8s-6.6-19.3-1.1-25.1c5.6-5.8 16.7-2.8 21.8-.5z" fill="url(#SVGID_4_)"/><path class="st14" d="M160.7 133.4s2.9.8 6.2-1.6c3.3-2.4 1-.9 3.2-.7 2.3.2 2.8-4.5 1.4-5.6-3.6-3-5.3-3.1-7.9-2.4-1.3.4-4.1 2.1-5 2.5-.8.4 2.1 7.8 2.1 7.8z"/><path class="st14" d="M163.8 123.1s6.3-2.5 10.7-2.8c1.6-.1 1.4 1.4-.3 1.6-1.7.2-4.8 1.3-6 1.9-1.1.5-4.6-.6-4.4-.7z"/><path class="st1" d="M153.4 125.7l4.4-1.1s2.8 1.5 3.1 5.5c.3 4-.6 4.8-.6 4.8l-4.8.7-2.1-9.9z"/><path d="M103.9 148.8s-10.7-.4-14.6-4c-3.9-3.5-3.7-10.7 3.6-12 7.4-1.3 28.4 3.8 31.3 3.8 2.9 0 22.2-9.4 30.8-11.5 4.7 3.2 4.1 8.4 3.2 11.4-8.1 3.3-25.7 10.7-29.8 11.2-4 .6-20.3 1.5-24.5 1.1z" fill="#879199"/><g><path class="st14" d="M91 87.6s-.1 2.5 1.6 7.2c1.7 4.6 2.9 10.2 1.5 14.7-1.4 4.4-2.9 6.3-7 6.5-2 .5-3.2 2.5-3.4 6-5.9 2.4-12.9-1.4-12.8-2.3.9-4 1.1-5.8-.5-8.7-1.5-2.9-3.1-15.1 2.4-19.9 5.5-4.8 18.2-3.5 18.2-3.5z"/><path d="M90.6 96.5s8.8-5.4 4.1-11.8C90 78.4 84 77.4 78.4 77c-5.6-.4-15.9 1.3-18.8 10.4-3.4 4-5.8 16.5-6.9 26.1-1.1 9.5 8.8 19.3 22.8 19.3s14.2-8 14.2-8-5.8-.2-7.2-7.9c-1.4-7.7 1.4-17.3 2.2-19.3 2.4.8 5.3-.7 5.9-1.1z" fill="#bf6745"/></g></g></g><g><path class="st1" d="M168.6 403.3l-33.8-19.5v-6.6l82.2-8.4v6.6z"/><path class="st5" d="M168.6 403.3v-6.6l48.4-27.9v6.6z"/><path class="st2" d="M168.6 396.7l-33.8-19.5 48.4-27.9 33.8 19.5z"/><path class="st3" d="M186.4 374.4c.5-2.1-.5-4.2-3.1-5.7s-6.2-2.1-9.8-1.8c-2.9.2-5.7 1-8 2.4-.3.2-.6.4-.9.5 2 1.6 4.7 3.4 7.7 5.2 3.1 1.8 6.2 3.3 9 4.5.3-.2.6-.3.9-.5 2.4-1.3 3.8-2.9 4.2-4.6z"/><path class="st3" d="M182.3 379c2.3-1.3 3.7-3 4.1-4.6.4-1.7-.2-3.4-1.8-4.8.9 3.1-2.7 6-6.3 8.5 1.1.5 2.1 1 3.1 1.4.3-.1.6-.3.9-.5z"/><path class="st3" d="M179.1 366.8s-2.4.6-2.3 2.6c2.7.2 4.2.5 4.2.5l.9 2.5s4 .3 4.5-1.4c.5-1.6-7.3-4.2-7.3-4.2zM192.2 370s1.9-.4 2.5-.1c.6.3-.4 1.1-2 1.4-1.6.3-3.7-.1-3-.5.6-.4 2.5-.8 2.5-.8zM180.8 363.4s.7-1.1.1-1.4c-.5-.3-1.8.2-2.4 1.2-.6.9.2 2.1.9 1.8.8-.5 1.4-1.6 1.4-1.6z"/><path class="st4" d="M194.4 369.4c-4.1 2.3-10.7 2.3-13.6.6-2.6-1.5-3-5.5 1-7.9 4.1-2.3 10.2-2.6 13.6-.6 3.5 2.1 3 5.6-1 7.9z"/><path class="st3" d="M180.6 370.1c-2.5-1.5-3.2-5.5 1-8 4.1-2.4 10.3-2.6 13.9-.6 3.5 2 3.1 5.6-1 8-4.2 2.4-10.9 2.3-13.9.6zm14.7-8.5c-3.4-2-9.4-1.7-13.4.6s-3.5 6.3-1 7.8c2.9 1.7 9.3 1.7 13.4-.6 3.9-2.3 4.4-5.8 1-7.8z"/><path class="st3" d="M186.1 361.7s1.7 3.4 6.8 5.9c-1.2-1-.3-1.5-.3-1.5s.3 1.1 1.2 1.6c-.2.8-1.1 1.1-.9 1.7.3.7-1.2 1.2-1.2 1.2s2.4-.9 3.3-1c.9-.2 5.5-2.6 3.1-4.3 1.1-2.6-4.5-5.5-9-5.5-4.4 0-7.9 1.8-8.8 3.5 1-.4 1.6-.9 2.4-.8.8 0 2.3-.1 3.4-.8z"/><g><path class="st4" d="M162.1 370.1l-.7 1.1 1.2.9h-2l-1.2 1-.6-1.1-2-.4 1.7-.7v-1.2l1.6.7zM166.8 372.8l-.7 1.1 1.3 1h-2.1l-1.2.9-.6-1.1-1.9-.4 1.6-.6v-1.2l1.6.7zM171.5 375.5l-.6 1.2 1.2.9H170l-1.1 1-.6-1.2-2-.3 1.7-.7-.1-1.2 1.7.7zM176.3 378.3l-.7 1.1 1.2.9h-2l-1.2 1-.6-1.1-2-.4 1.7-.7v-1.2l1.6.7zM181 381l-.7 1.1 1.3 1h-2.1l-1.2.9-.6-1.1-1.9-.4 1.6-.6v-1.2l1.7.7z"/></g><g><path class="st3" d="M162.6 378.5l-12.2-7.1.6-.3 12.3 7zM176.6 388.9l-28.2-16.3.3-.2 28.3 16.3zM175.1 389.8l-28.2-16.3.3-.2 28.3 16.3zM173.6 390.6l-28.2-16.3.3-.2 28.3 16.3zM172.1 391.5l-28.2-16.3.3-.2 28.3 16.3zM170.6 392.4l-28.2-16.3.3-.2 28.3 16.3zM169.1 393.2l-28.2-16.3.3-.2 28.3 16.3z"/></g><g><path class="st1" d="M152.4 398.5L118.6 379v-6.7l82.1-8.4v6.6z"/><path class="st6" d="M152.4 398.5v-6.7l48.3-27.9v6.6z"/><path class="st2" d="M152.4 391.8l-33.8-19.5 48.3-27.9 33.8 19.5z"/><path class="st3" d="M170.1 369.5c.5-2.1-.5-4.2-3.1-5.7s-6.2-2.1-9.8-1.8c-2.9.2-5.7 1-8 2.4-.3.2-.6.4-.9.5 2 1.6 4.7 3.4 7.7 5.2 3.1 1.8 6.2 3.3 9 4.5.3-.2.6-.3.9-.5 2.5-1.3 3.8-2.9 4.2-4.6z"/><path class="st3" d="M166.1 374.1c2.3-1.3 3.7-3 4.1-4.6.4-1.7-.2-3.4-1.8-4.8.9 3.1-2.7 6-6.3 8.5 1.1.5 2.1 1 3.1 1.4.2-.1.6-.3.9-.5z"/><path class="st3" d="M162.9 362s-2.4.6-2.3 2.6c2.7.2 4.2.5 4.2.5l.9 2.5s4 .3 4.5-1.4c.5-1.6-7.3-4.2-7.3-4.2zM175.9 365.1s1.9-.4 2.5-.1c.6.3-.4 1.1-2 1.4-1.6.3-3.7-.1-3-.5.6-.4 2.5-.8 2.5-.8zM164.6 358.5s.7-1.1.1-1.4c-.5-.3-1.8.2-2.4 1.2-.6.9.2 2.1.9 1.8.7-.4 1.4-1.6 1.4-1.6z"/><path class="st4" d="M178.1 364.6c-4.1 2.3-10.7 2.3-13.6.6-2.6-1.5-3-5.5 1-7.9 4.1-2.3 10.2-2.6 13.6-.6 3.6 2 3.1 5.5-1 7.9z"/><path class="st3" d="M164.4 365.2c-2.5-1.5-3.2-5.5 1-8 4.1-2.4 10.3-2.6 13.9-.6 3.5 2 3.1 5.6-1 8-4.3 2.5-11 2.4-13.9.6zm14.7-8.4c-3.4-2-9.4-1.7-13.4.6s-3.5 6.3-1 7.7c2.9 1.7 9.3 1.7 13.4-.6 3.9-2.3 4.4-5.8 1-7.7z"/><path class="st3" d="M169.9 356.8s1.7 3.4 6.8 5.9c-1.2-1-.3-1.5-.3-1.5s.3 1.1 1.2 1.6c-.2.8-1.1 1.1-.9 1.7.3.7-1.2 1.2-1.2 1.2s2.4-.9 3.3-1c.9-.2 5.5-2.6 3.1-4.3 1.1-2.6-4.5-5.5-9-5.5-4.4 0-7.9 1.8-8.8 3.5 1-.4 1.6-.9 2.4-.8.8 0 2.3-.1 3.4-.8z"/><g><path class="st4" d="M145.8 365.2l-.7 1.1 1.3 1-2.1-.1-1.2 1-.6-1.1-1.9-.4 1.6-.7v-1.1l1.7.7zM150.5 367.9l-.6 1.1 1.2 1h-2l-1.2.9-.6-1.1-2-.3 1.7-.7v-1.2l1.6.7zM155.3 370.7l-.7 1.1 1.2.9h-2l-1.2 1-.6-1.1-1.9-.4 1.6-.7v-1.2l1.6.7zM160 373.4l-.6 1.1 1.2 1h-2.1l-1.1.9-.7-1.1-1.9-.4 1.7-.6-.1-1.2 1.7.7zM164.8 376.1l-.7 1.2 1.2.9h-2l-1.2 1-.6-1.2-2-.3 1.7-.7v-1.2l1.6.7z"/></g><g><path class="st3" d="M146.4 373.7l-12.3-7.1.7-.4 12.2 7.1zM160.4 384l-28.3-16.3.3-.2 28.3 16.3zM158.9 384.9l-28.3-16.3.3-.2 28.3 16.3zM157.4 385.8l-28.3-16.3.3-.2 28.3 16.3zM155.9 386.6l-28.3-16.3.4-.2 28.2 16.3zM154.4 387.5l-28.3-16.3.4-.2 28.2 16.3zM152.9 388.4L124.6 372l.4-.1 28.2 16.3z"/></g></g><g><path class="st1" d="M166 386.7l-33.8-19.5v-6.6l82.1-8.4v6.6z"/><path class="st5" d="M166 386.7v-6.6l48.3-27.9v6.6z"/><path class="st2" d="M166 380.1l-33.8-19.5 48.3-27.9 33.8 19.5z"/><path class="st3" d="M183.7 357.8c.5-2.1-.5-4.2-3.1-5.7s-6.2-2.1-9.8-1.8c-2.9.2-5.7 1-8 2.4-.3.2-.6.4-.9.5 2 1.6 4.7 3.4 7.7 5.2 3.1 1.8 6.2 3.3 9 4.5.3-.2.6-.3.9-.5 2.4-1.3 3.8-3 4.2-4.6z"/><path class="st3" d="M179.7 362.4c2.3-1.3 3.7-3 4.1-4.6.4-1.7-.2-3.4-1.8-4.8.9 3.1-2.7 6-6.3 8.5 1.1.5 2.1 1 3.1 1.4.2-.2.5-.3.9-.5z"/><path class="st3" d="M176.5 350.2s-2.4.6-2.3 2.6c2.7.2 4.2.5 4.2.5l.9 2.5s4 .3 4.5-1.4c.5-1.6-7.3-4.2-7.3-4.2zM189.5 353.4s1.9-.4 2.5-.1c.6.3-.4 1.1-2 1.4-1.6.3-3.7-.1-3-.5.6-.5 2.5-.8 2.5-.8zM178.1 346.8s.7-1.1.1-1.4c-.5-.3-1.8.2-2.4 1.2-.6.9.2 2.1.9 1.8.8-.5 1.4-1.6 1.4-1.6z"/><path class="st4" d="M191.7 352.8c-4.1 2.3-10.7 2.3-13.6.6-2.6-1.5-3-5.5 1-7.9 4.1-2.3 10.2-2.6 13.6-.6 3.5 2.1 3.1 5.6-1 7.9z"/><path class="st3" d="M178 353.5c-2.5-1.5-3.2-5.5 1-8 4.1-2.4 10.3-2.6 13.9-.6 3.5 2 3.1 5.6-1 8-4.3 2.4-11 2.3-13.9.6zm14.7-8.5c-3.4-2-9.4-1.7-13.4.6s-3.5 6.3-1.1 7.8c2.9 1.7 9.4 1.7 13.4-.6s4.5-5.8 1.1-7.8z"/><path class="st3" d="M183.5 345s1.7 3.4 6.8 5.9c-1.2-1-.3-1.5-.3-1.5s.3 1.1 1.2 1.6c-.2.8-1.1 1.1-.9 1.7.3.7-1.2 1.2-1.2 1.2s2.4-.9 3.3-1c.9-.2 5.5-2.6 3.1-4.3 1.1-2.6-4.5-5.5-9-5.5-4.4 0-7.9 1.8-8.8 3.5 1-.4 1.6-.9 2.4-.8.8 0 2.3-.1 3.4-.8z"/><g><path class="st4" d="M159.4 353.4l-.7 1.2 1.3.9h-2.1l-1.2 1-.6-1.2-1.9-.3 1.6-.7v-1.2l1.7.7zM164.1 356.2l-.6 1.1 1.2.9h-2l-1.2 1-.6-1.1-2-.4 1.7-.7v-1.1l1.6.7zM168.9 358.9l-.7 1.1 1.2 1h-2l-1.2.9-.6-1.1-2-.3 1.7-.7v-1.2l1.6.7zM173.6 361.7l-.6 1.1 1.2.9h-2.1l-1.2 1-.6-1.2-1.9-.3 1.7-.7-.1-1.2 1.7.7zM178.3 364.4l-.6 1.1 1.2 1-2-.1-1.2 1-.6-1.1-2-.4 1.7-.7v-1.1l1.6.7z"/></g><g><path class="st3" d="M160 361.9l-12.3-7.1.7-.4 12.2 7.1zM174 372.3L145.7 356l.3-.2 28.3 16.3zM172.5 373.2l-28.3-16.4.3-.1 28.3 16.3zM171 374l-28.3-16.3.3-.2 28.3 16.3zM169.5 374.9l-28.3-16.3.3-.2 28.3 16.3zM168 375.8l-28.3-16.4.3-.2 28.3 16.4zM166.5 376.6l-28.3-16.3.3-.2 28.3 16.3z"/></g></g><g><path class="st1" d="M155.4 383.4l-33.8-19.5v-6.6l82.1-8.4v6.6z"/><path class="st6" d="M155.4 383.4v-6.6l48.3-27.9v6.6z"/><path class="st2" d="M155.4 376.8l-33.8-19.5 48.3-27.9 33.8 19.5z"/><path class="st3" d="M173.1 354.5c.5-2.1-.5-4.2-3.1-5.7s-6.2-2.1-9.8-1.8c-2.9.2-5.7 1-8 2.4-.3.2-.6.4-.9.5 2 1.6 4.7 3.4 7.7 5.2 3.1 1.8 6.2 3.3 9 4.5.3-.2.6-.3.9-.5 2.4-1.3 3.8-3 4.2-4.6z"/><path class="st3" d="M169.1 359.1c2.3-1.3 3.7-3 4.1-4.6.4-1.7-.2-3.4-1.8-4.8.9 3.1-2.7 6-6.3 8.5 1.1.5 2.1 1 3.1 1.4.2-.2.5-.3.9-.5z"/><path class="st3" d="M165.9 346.9s-2.4.6-2.3 2.6c2.7.2 4.2.5 4.2.5l.9 2.5s4 .3 4.5-1.4c.5-1.6-7.3-4.2-7.3-4.2zM178.9 350.1s1.9-.4 2.5-.1c.6.3-.4 1.1-2 1.4-1.6.3-3.7-.1-3-.5.6-.5 2.5-.8 2.5-.8zM167.5 343.5s.7-1.1.1-1.4c-.5-.3-1.8.2-2.4 1.2-.6.9.2 2.1.9 1.8.8-.5 1.4-1.6 1.4-1.6z"/><path class="st4" d="M181.1 349.5c-4.1 2.3-10.7 2.3-13.6.6-2.6-1.5-3-5.5 1-7.9 4.1-2.3 10.2-2.6 13.6-.6 3.5 2.1 3.1 5.6-1 7.9z"/><path class="st3" d="M167.4 350.2c-2.5-1.5-3.2-5.5 1-8 4.1-2.4 10.3-2.6 13.9-.6 3.5 2 3.1 5.6-1 8-4.3 2.4-11 2.3-13.9.6zm14.7-8.5c-3.4-2-9.4-1.7-13.4.6s-3.5 6.3-1 7.8c2.9 1.7 9.4 1.7 13.4-.6 3.9-2.3 4.4-5.8 1-7.8z"/><path class="st3" d="M172.9 341.7s1.7 3.4 6.8 5.9c-1.2-1-.3-1.5-.3-1.5s.3 1.1 1.2 1.6c-.2.8-1.1 1.1-.9 1.7.3.7-1.2 1.2-1.2 1.2s2.4-.9 3.3-1c.9-.2 5.5-2.6 3.1-4.3 1.1-2.6-4.5-5.5-9-5.5-4.4 0-7.9 1.8-8.8 3.5 1-.4 1.6-.9 2.4-.8.8 0 2.3-.1 3.4-.8z"/><g><path class="st4" d="M148.8 350.1l-.7 1.2 1.3.9h-2.1l-1.2 1-.6-1.2-1.9-.3 1.6-.7v-1.2l1.7.7zM153.5 352.9l-.6 1.1 1.2.9h-2l-1.2 1-.6-1.1-2-.4 1.7-.7v-1.1l1.6.7zM158.3 355.6l-.7 1.1 1.2 1h-2l-1.2.9-.6-1.1-2-.3 1.7-.7v-1.2l1.6.7zM163 358.3l-.6 1.2 1.2.9h-2.1l-1.1 1-.7-1.2-1.9-.3 1.7-.7-.1-1.2 1.7.7zM167.8 361.1l-.7 1.1 1.2 1-2-.1-1.2 1-.6-1.1-2-.4 1.7-.7v-1.1l1.6.7z"/></g><g><path class="st3" d="M149.4 358.6l-12.3-7.1.7-.4 12.2 7.1zM163.4 369l-28.3-16.3.3-.2 28.3 16.3zM161.9 369.9l-28.3-16.4.3-.2 28.3 16.4zM160.4 370.7l-28.3-16.3.3-.2 28.3 16.3zM158.9 371.6l-28.3-16.3.3-.2 28.3 16.3zM157.4 372.5l-28.3-16.4.3-.2 28.3 16.4zM155.9 373.3L127.6 357l.4-.2 28.2 16.3z"/></g></g><g><path class="st1" d="M166 374.7l-33.7-19.5v-6.6l82.1-8.4v6.6z"/><path class="st5" d="M166 374.7v-6.6l48.4-27.9v6.6z"/><linearGradient id="SVGID_5_" gradientUnits="userSpaceOnUse" x1="132.263" y1="344.426" x2="214.388" y2="344.426"><stop offset="0" stop-color="#efefef"/><stop offset="1" stop-color="#f5f5f5"/></linearGradient><path fill="url(#SVGID_5_)" d="M166 368.1l-33.7-19.5 48.3-27.9 33.8 19.5z"/><path class="st3" d="M183.8 345.8c.5-2.1-.5-4.2-3.1-5.7s-6.2-2.1-9.8-1.8c-2.9.2-5.7 1-8 2.4-.3.2-.6.4-.9.5 2 1.6 4.7 3.4 7.7 5.2 3.1 1.8 6.2 3.3 9 4.5.3-.2.6-.3.9-.5 2.4-1.3 3.8-2.9 4.2-4.6z"/><path class="st3" d="M179.7 350.4c2.3-1.3 3.7-3 4.1-4.6.4-1.7-.2-3.4-1.8-4.8.9 3.1-2.7 6-6.3 8.5 1.1.5 2.1 1 3.1 1.4.3-.1.6-.3.9-.5z"/><path class="st3" d="M176.6 338.3s-2.4.6-2.3 2.6c2.7.2 4.2.4 4.2.4l.9 2.5s4 .3 4.5-1.4c.4-1.5-7.3-4.1-7.3-4.1zM189.6 341.4s1.9-.4 2.5-.1c.6.3-.4 1.1-2 1.4-1.6.3-3.7-.1-3-.5.6-.4 2.5-.8 2.5-.8zM178.2 334.8s.7-1.1.1-1.4c-.5-.3-1.8.2-2.4 1.2-.6.9.2 2.1.9 1.8.8-.4 1.4-1.6 1.4-1.6z"/><path class="st4" d="M191.8 340.9c-4.1 2.3-10.7 2.3-13.6.6-2.6-1.5-3-5.5 1-7.9 4.1-2.3 10.2-2.6 13.6-.6 3.5 2 3 5.5-1 7.9z"/><path class="st3" d="M178 341.5c-2.5-1.5-3.2-5.5 1-8 4.1-2.4 10.3-2.6 13.9-.6 3.5 2 3.1 5.6-1.1 8-4.1 2.5-10.8 2.3-13.8.6zm14.7-8.5c-3.4-2-9.4-1.7-13.4.6s-3.5 6.3-1 7.8c2.9 1.7 9.3 1.7 13.4-.6 4-2.3 4.4-5.8 1-7.8z"/><path class="st3" d="M183.5 333.1s1.7 3.4 6.8 5.9c-1.2-1-.3-1.5-.3-1.5s.3 1.1 1.2 1.6c-.2.8-1.1 1.1-.9 1.7.3.7-1.2 1.2-1.2 1.2s2.4-.9 3.3-1c.9-.2 5.5-2.6 3.1-4.3 1.1-2.6-4.5-5.5-9-5.5-4.4 0-7.9 1.8-8.8 3.5 1-.4 1.6-.9 2.4-.8.8 0 2.3-.1 3.4-.8z"/><g><path class="st4" d="M159.5 341.5l-.7 1.1 1.2 1-2-.1-1.2 1-.6-1.1-2-.4 1.7-.7v-1.1l1.6.7zM164.2 344.2l-.6 1.1 1.2 1h-2.1l-1.2.9-.6-1.1-1.9-.3 1.7-.7-.1-1.2 1.7.7zM168.9 347l-.6 1.1 1.2.9h-2l-1.2 1-.6-1.2-2-.3 1.7-.7v-1.2l1.6.7zM173.7 349.7l-.7 1.1 1.3 1-2.1-.1-1.2 1-.6-1.1-1.9-.4 1.6-.7v-1.1l1.6.7zM178.4 352.4l-.6 1.1 1.2 1h-2.1l-1.1.9-.6-1.1-2-.3 1.7-.7-.1-1.2 1.7.7z"/></g><g><path class="st3" d="M160 349.9l-12.2-7 .6-.4 12.3 7.1zM174 360.3L145.8 344l.3-.2 28.3 16.3zM172.5 361.2l-28.2-16.3.3-.2 28.3 16.3zM171 362.1l-28.2-16.4.3-.1 28.3 16.3zM169.5 362.9l-28.2-16.3.3-.2 28.3 16.3zM168 363.8l-28.2-16.3.3-.2 28.3 16.3zM166.5 364.7l-28.2-16.4.3-.2 28.3 16.4z"/></g></g></g></svg>