<svg id="light" enable-background="new 0 0 24 24" height="512" viewBox="0 0 24 24" width="512" xmlns="http://www.w3.org/2000/svg"><g><g><path d="m20.5 5c-1.378 0-2.5-1.122-2.5-2.5s1.122-2.5 2.5-2.5 2.5 1.122 2.5 2.5-1.122 2.5-2.5 2.5zm0-4c-.827 0-1.5.673-1.5 1.5s.673 1.5 1.5 1.5 1.5-.673 1.5-1.5-.673-1.5-1.5-1.5z"/></g><g><path d="m23.5 6c-.128 0-.256-.049-.354-.146l-1.5-1.5c-.195-.195-.195-.512 0-.707s.512-.195.707 0l1.5 1.5c.195.195.195.512 0 .707-.097.097-.225.146-.353.146z"/></g></g><g><path d="m14.5 6h-13c-.827 0-1.5-.673-1.5-1.5v-3c0-.827.673-1.5 1.5-1.5h13c.827 0 1.5.673 1.5 1.5v3c0 .827-.673 1.5-1.5 1.5zm-13-5c-.276 0-.5.224-.5.5v3c0 .276.224.5.5.5h13c.276 0 .5-.224.5-.5v-3c0-.276-.224-.5-.5-.5z"/></g><g><path d="m23.5 9h-23c-.276 0-.5-.224-.5-.5s.224-.5.5-.5h23c.276 0 .5.224.5.5s-.224.5-.5.5z"/></g><g><path d="m23.5 12h-23c-.276 0-.5-.224-.5-.5s.224-.5.5-.5h23c.276 0 .5.224.5.5s-.224.5-.5.5z"/></g><g><path d="m23.5 15h-23c-.276 0-.5-.224-.5-.5s.224-.5.5-.5h23c.276 0 .5.224.5.5s-.224.5-.5.5z"/></g><g><path d="m23.5 18h-23c-.276 0-.5-.224-.5-.5s.224-.5.5-.5h23c.276 0 .5.224.5.5s-.224.5-.5.5z"/></g><g><path d="m23.5 21h-23c-.276 0-.5-.224-.5-.5s.224-.5.5-.5h23c.276 0 .5.224.5.5s-.224.5-.5.5z"/></g><g><path d="m23.5 24h-23c-.276 0-.5-.224-.5-.5s.224-.5.5-.5h23c.276 0 .5.224.5.5s-.224.5-.5.5z"/></g></svg>