<?xml version="1.0" encoding="utf-8"?>
<!-- Generator: Adobe Illustrator 24.2.0, SVG Export Plug-In . SVG Version: 6.00 Build 0)  -->
<svg version="1.1" id="Calque_1" xmlns="http://www.w3.org/2000/svg" xmlns:xlink="http://www.w3.org/1999/xlink" x="0px" y="0px"
	 width="170.5px" height="55.3px" viewBox="0 0 170.5 55.3" style="enable-background:new 0 0 170.5 55.3;" xml:space="preserve">
<style type="text/css">
	.st0{fill:#004996;}
	.st1{fill:#004996;stroke:#004996;stroke-width:0.3677;}
	.st2{fill:#004996;stroke:#004996;stroke-width:0.5786;}
	.st3{fill:#004996;stroke:#004996;stroke-width:0.1736;}
</style>
<g>
	<path class="st0" d="M12,49.7c0.2-1.4,1.1-2.2,2.4-2.2c1.3,0,2.1,0.9,2.1,2.2H12z M14.4,41.9l-1.4,3h1.1l2.3-3H14.4z M18.2,52.5
		c-1.1,0.7-2.1,1.1-3.2,1.1c-1.7,0-2.8-0.9-3.1-2.7h6.4c0-3.4-1.5-5-3.9-5c-2.5,0-4.2,1.9-4.2,4.6c0,2.5,1.6,4.8,4.4,4.8
		c1.5,0,2.5-0.3,3.6-1.1V52.5z"/>
	<path class="st0" d="M38.4,53.6h-1.8c-2.1,0-2.8-1.3-2.8-3c0-1.9,1.2-3.2,2.9-3.2c0.6,0,1.1,0.1,1.7,0.3V53.6z M40.2,41.4h-1.8v4.9
		c-0.7-0.3-1.3-0.4-1.9-0.4c-2.6,0-4.5,1.9-4.5,4.5c0,2.9,1.7,4.7,4.4,4.7h3.8V41.4z"/>
	<path class="st0" d="M56.7,55.2h-1.8v-9.1h1.8V55.2z M55.8,44.4c-0.6,0-1.1-0.5-1.1-1.1s0.5-1.1,1.1-1.1s1.1,0.5,1.1,1.1
		S56.3,44.4,55.8,44.4z"/>
	<path class="st0" d="M73.5,46.1h2.9v1.6h-2.9v4.6c0,1.1,0.8,1.4,1.3,1.4c0.6,0,1.3-0.2,2-0.7v1.7c-0.6,0.3-1.6,0.6-2.2,0.6
		c-2,0-3-1.2-3-2.8v-4.8h-1.6v-0.2l3.4-3.3V46.1z"/>
	<path class="st0" d="M92.1,55.2h-1.8v-9.1h1.8V55.2z M91.2,44.4c-0.6,0-1.1-0.5-1.1-1.1s0.5-1.1,1.1-1.1c0.6,0,1.1,0.5,1.1,1.1
		S91.8,44.4,91.2,44.4z"/>
	<path class="st0" d="M111,47.5c1.8,0,3.1,1.3,3.1,3c0,2-1.2,3.2-3.1,3.2c-1.7,0-2.9-1.3-2.9-3.2C108.1,48.8,109.3,47.5,111,47.5z
		 M111,45.9c-2.7,0-4.8,2-4.8,4.6c0,2.8,2,4.8,4.8,4.8c2.9,0,4.9-1.9,4.9-4.8C115.9,47.8,113.9,45.9,111,45.9z"/>
	<path class="st0" d="M131.8,47.3L131.8,47.3c0.7-0.9,1.7-1.4,2.7-1.4c1.7,0,3.1,1.2,3.1,3.7v5.6h-1.8v-5.6c0-1.3-0.7-2.2-1.8-2.2
		c-0.8,0-1.4,0.4-2.3,1.3v6.5H130v-9.1h1.8V47.3z"/>
	<path class="st0" d="M157.6,48.4c-1-0.7-2-1-2.6-1c-0.7,0-1.2,0.3-1.2,0.8c0,0.4,0.6,0.9,2.2,1.8c1.5,1,2,1.6,2,2.5
		c0,1.6-1.3,2.7-3,2.7c-1.1,0-2-0.2-3.2-0.8v-1.9c1.2,0.8,2.2,1.2,3,1.2c0.7,0,1.3-0.4,1.3-1c0-1.3-4.2-1.9-4.2-4.4
		c0-1.5,1.2-2.5,3-2.5c0.8,0,1.7,0.2,2.7,0.7V48.4z"/>
	<path class="st1" d="M170.4,42.1c-12.1-5.1-45.5-8.7-84.9-8.7l0,0l0,0l0,0l0,0c-39.3,0-72.7,3.6-84.9,8.7C3.8,40.8,23.8,34,85.5,34
		C147.3,34,167.3,40.8,170.4,42.1z"/>
	<g>
		<path class="st2" d="M42.1,23.8c0,1.3,0,2.1,1.5,2.2c0.7,0,1.1,0.1,1.1,0.5c0,0.4-0.4,0.4-0.6,0.4c-0.6,0-1.6-0.1-3.7-0.1
			c-1.7,0-3.3,0.1-3.6,0.1c-0.2,0-0.6,0-0.6-0.5c0-0.4,0.5-0.5,1.1-0.5c1.5-0.1,1.5-0.9,1.5-2.2V11c0-1.3,0-2.1-1.5-2.2
			c-0.7,0-1.1-0.1-1.1-0.5c0-0.4,0.4-0.4,0.6-0.4c0.6,0,1.7,0.1,3.6,0.1c2.2,0,3.2-0.1,3.6-0.1c0.2,0,0.6,0,0.6,0.5
			c0,0.4-0.5,0.5-1.1,0.5c-1.5,0.1-1.5,0.9-1.5,2.1V23.8z"/>
		<path class="st2" d="M64.9,27.2c-2.4,0-4.3-0.8-4.9-1.2c-0.3-0.2-0.4-0.7-0.4-1.4c0-0.1,0-1.6,0.1-2.8c0-0.1,0-0.6,0.4-0.6
			c0.3,0,0.4,0.2,0.4,0.5c0.6,2.7,2.7,4.6,4.8,4.6c1.3,0,3.6-0.9,3.6-3.4c0-2.4-2.1-3.5-4.3-4.6c-2.5-1.1-4.9-2.3-4.9-5.5
			c0-2.8,2.1-5.3,6-5.3c1.8,0,3.6,0.5,4,0.7c0.4,0.2,0.4,0.5,0.4,3.2c0,0.7,0,0.9-0.4,0.9c-0.3,0-0.4-0.2-0.7-1.1
			c-0.4-1.2-0.9-2.9-3.5-2.9c-2.5,0-3.3,1.7-3.3,2.9c0,2.2,1.8,2.9,4.2,3.9c1.7,0.7,4.9,2.2,4.9,5.7C71.5,24.3,69,27.2,64.9,27.2z"
			/>
		<path class="st2" d="M92.1,27.2c-2.4,0-4.3-0.8-4.9-1.2c-0.3-0.2-0.4-0.7-0.4-1.4c0-0.1,0-1.6,0.1-2.8c0-0.1,0-0.6,0.4-0.6
			c0.3,0,0.4,0.2,0.4,0.5c0.6,2.7,2.7,4.6,4.8,4.6c1.3,0,3.6-0.9,3.6-3.4c0-2.4-2.1-3.5-4.3-4.6c-2.5-1.1-4.9-2.3-4.9-5.5
			c0-2.8,2.1-5.3,6-5.3c1.8,0,3.6,0.5,4,0.7c0.4,0.2,0.4,0.5,0.4,3.2c0,0.7,0,0.9-0.4,0.9c-0.3,0-0.4-0.2-0.7-1.1
			c-0.4-1.2-0.9-2.9-3.5-2.9c-2.5,0-3.3,1.7-3.3,2.9c0,2.2,1.8,2.9,4.2,3.9c1.7,0.7,4.9,2.2,4.9,5.7C98.7,24.3,96.2,27.2,92.1,27.2z
			"/>
		<path class="st2" d="M131.1,17.2c0,4.4-2.2,9.2-6.5,9.2c-4.1,0-7-4.7-7-9.7c0-4.3,2.2-8.3,6.5-8.3
			C128.9,8.4,131.1,13.6,131.1,17.2z M134.8,17.1c0-5.3-4.6-9.4-10.3-9.4c-5.9,0-10.5,4.2-10.5,9.7c0,5.8,5.1,9.8,10.4,9.8
			C129.5,27.2,134.8,23,134.8,17.1z"/>
	</g>
	<path class="st3" d="M22.5,1.4c-0.3-1.1-0.5-1.3-0.9-1.3c-1,0,0.4,1.7-3.6,1.7h-12c-3.9,0-2.6-1.7-3.6-1.7C2.2,0.1,2,0.3,1.7,1.4
		c-0.7,2.3-1.6,5-1.6,6.1c0,0.3,0.1,0.5,0.5,0.5c1.2,0,1.3-4.8,6.6-4.6C9.6,3.4,9.9,3.5,10,5.1v17.1c0,0.3,0,0.6,0,0.9
		c-0.1,0.7-0.4,1.6-0.7,1.9c-0.1,0.1-0.3,0.1-0.5,0.1C6.6,25.2,6,25.5,6,26c0,0.2,0.1,0.3,0.2,0.4c0,0.2,0.2,0.4,0.8,0.4
		c1.7,0,3.4-0.3,5.1-0.3c1.7,0,3.4,0.3,5.1,0.3c0.6,0,0.7-0.1,0.8-0.4c0.1-0.1,0.2-0.2,0.2-0.4c0-0.5-0.6-0.9-2.8-0.9
		c-0.2,0-0.4,0-0.5-0.1c-0.3-0.3-0.6-1.3-0.7-1.9c0-0.3,0-0.6,0-0.9V5.1c0-1.6,0.4-1.7,2.8-1.8c5.3-0.2,5.4,4.6,6.6,4.6
		c0.4,0,0.5-0.2,0.5-0.5C24.2,6.4,23.2,3.7,22.5,1.4z"/>
	<path class="st3" d="M166.3,1.4c-0.3-1.1-0.5-1.3-0.9-1.3c-1,0,0.4,1.7-3.6,1.7h-12c-3.9,0-2.6-1.7-3.6-1.7c-0.4,0-0.5,0.2-0.9,1.3
		c-0.7,2.3-1.6,5-1.6,6.1c0,0.3,0.1,0.5,0.5,0.5c1.2,0,1.3-4.8,6.6-4.6c2.4,0.1,2.8,0.2,2.8,1.8v17.1c0,0.3,0,0.6,0,0.9
		c-0.1,0.7-0.4,1.6-0.7,1.9c-0.1,0.1-0.3,0.1-0.5,0.1c-2.1,0-2.8,0.3-2.8,0.9c0,0.2,0.1,0.3,0.2,0.4c0,0.2,0.2,0.4,0.8,0.4
		c1.7,0,3.4-0.3,5.1-0.3c1.7,0,3.4,0.3,5.1,0.3c0.6,0,0.7-0.1,0.8-0.4c0.1-0.1,0.2-0.2,0.2-0.4c0-0.5-0.6-0.9-2.8-0.9
		c-0.2,0-0.4,0-0.5-0.1c-0.3-0.3-0.6-1.3-0.7-1.9c0-0.3,0-0.6,0-0.9V5.1c0-1.6,0.4-1.7,2.8-1.8c5.3-0.2,5.4,4.6,6.6,4.6
		c0.4,0,0.5-0.2,0.5-0.5C167.9,6.4,166.9,3.7,166.3,1.4z"/>
</g>
</svg>
